<svg width="13" height="13" viewBox="0 0 13 13" fill="none" xmlns="http://www.w3.org/2000/svg">
<path d="M9.46951 13C9.64213 13.001 9.81322 12.9676 9.97279 12.9017C10.1324 12.8359 10.2772 12.7389 10.3989 12.6165L12.1602 10.8552C12.2813 10.7334 12.3492 10.5687 12.3492 10.397C12.3492 10.2253 12.2813 10.0606 12.1602 9.9388L9.5605 7.33908C9.43873 7.21803 9.274 7.15009 9.1023 7.15009C8.9306 7.15009 8.76587 7.21803 8.6441 7.33908L7.60421 8.37247C6.88425 8.18051 6.21746 7.82711 5.65442 7.33908C5.1677 6.77514 4.81447 6.10867 4.62103 5.38929L5.65442 4.3494C5.77547 4.22763 5.84341 4.0629 5.84341 3.8912C5.84341 3.7195 5.77547 3.55477 5.65442 3.433L3.0547 0.833273C2.93292 0.712223 2.7682 0.644278 2.5965 0.644278C2.42479 0.644278 2.26007 0.712223 2.13829 0.833273L0.383481 2.60108C0.261055 2.72278 0.164094 2.86764 0.0982564 3.02721C0.0324192 3.18678 -0.000975386 3.35787 2.16861e-05 3.53049C0.0589853 6.02771 1.05686 8.411 2.79472 10.2053C4.589 11.9431 6.97229 12.941 9.46951 13ZM2.59975 2.21763L4.28307 3.90095L3.44466 4.73936C3.36525 4.81374 3.30578 4.90687 3.27172 5.0102C3.23765 5.11354 3.23007 5.22377 3.24968 5.33079C3.4926 6.41642 4.00692 7.42269 4.74452 8.25548C5.57666 8.99403 6.58319 9.50848 7.66921 9.75032C7.77461 9.77236 7.88384 9.76786 7.98707 9.73723C8.09031 9.7066 8.18431 9.6508 8.26064 9.57484L9.09905 8.71693L10.7824 10.4003L9.48251 11.7001C7.32717 11.6446 5.27064 10.7844 3.71763 9.28887C2.21818 7.73522 1.35552 5.67598 1.29988 3.51749L2.59975 2.21763ZM11.6988 5.85074H12.9986C13.0155 5.07797 12.8757 4.30979 12.5877 3.59249C12.2997 2.8752 11.8695 2.22363 11.3229 1.67707C10.7764 1.13052 10.1248 0.700274 9.40751 0.412282C8.69021 0.124289 7.92203 -0.0154922 7.14926 0.00136137V1.30122C7.75234 1.28036 8.35325 1.38377 8.91466 1.60502C9.47608 1.82627 9.98597 2.16064 10.4127 2.58733C10.8394 3.01403 11.1737 3.52392 11.395 4.08533C11.6162 4.64675 11.7196 5.24766 11.6988 5.85074Z" fill="white"/>
<path d="M7.14941 3.90142C8.51427 3.90142 9.09921 4.48636 9.09921 5.85122H10.3991C10.3991 3.75844 9.24219 2.60156 7.14941 2.60156V3.90142Z" fill="white"/>
</svg>
