<svg width="18" height="19" viewBox="0 0 18 19" fill="none" xmlns="http://www.w3.org/2000/svg">
<path d="M9 4.94C8.14559 4.94 7.31036 5.20744 6.59994 5.7085C5.88952 6.20956 5.33581 6.92173 5.00884 7.75496C4.68187 8.58819 4.59632 9.50506 4.76301 10.3896C4.9297 11.2742 5.34114 12.0867 5.9453 12.7244C6.54946 13.3621 7.31921 13.7964 8.15721 13.9724C8.99521 14.1483 9.86382 14.058 10.6532 13.7129C11.4426 13.3678 12.1173 12.7833 12.5919 12.0334C13.0666 11.2835 13.32 10.4019 13.32 9.5C13.32 8.29061 12.8649 7.13076 12.0547 6.27559C11.2445 5.42043 10.1457 4.94 9 4.94ZM9 12.54C8.43039 12.54 7.87357 12.3617 7.39996 12.0277C6.92634 11.6936 6.55721 11.2188 6.33923 10.6634C6.12125 10.1079 6.06421 9.49663 6.17534 8.90693C6.28646 8.31722 6.56076 7.77555 6.96353 7.3504C7.36631 6.92524 7.87947 6.63571 8.43814 6.51841C8.99681 6.40111 9.57588 6.46132 10.1021 6.69141C10.6284 6.9215 11.0782 7.31114 11.3946 7.81107C11.7111 8.31099 11.88 8.89874 11.88 9.5C11.8776 10.3055 11.5734 11.0773 11.0338 11.6468C10.4943 12.2164 9.76309 12.5375 9 12.54ZM12.96 0H5.04C3.70331 0 2.42137 0.560498 1.47618 1.55819C0.530998 2.55589 0 3.90905 0 5.32V13.68C0 15.091 0.530998 16.4441 1.47618 17.4418C2.42137 18.4395 3.70331 19 5.04 19H12.96C14.2967 19 15.5786 18.4395 16.5238 17.4418C17.469 16.4441 18 15.091 18 13.68V5.32C18 3.90905 17.469 2.55589 16.5238 1.55819C15.5786 0.560498 14.2967 0 12.96 0ZM16.56 13.68C16.56 14.179 16.4669 14.6732 16.286 15.1342C16.1051 15.5952 15.8399 16.0141 15.5056 16.367C15.1713 16.7199 14.7744 16.9998 14.3377 17.1907C13.9009 17.3817 13.4328 17.48 12.96 17.48H5.04C4.56724 17.48 4.09911 17.3817 3.66234 17.1907C3.22557 16.9998 2.82871 16.7199 2.49442 16.367C2.16012 16.0141 1.89495 15.5952 1.71403 15.1342C1.53312 14.6732 1.44 14.179 1.44 13.68V5.32C1.44 4.31218 1.81928 3.34563 2.49442 2.63299C3.16955 1.92036 4.08522 1.52 5.04 1.52H12.96C13.4328 1.52 13.9009 1.61829 14.3377 1.80926C14.7744 2.00023 15.1713 2.28013 15.5056 2.63299C15.8399 2.98586 16.1051 3.40477 16.286 3.8658C16.4669 4.32684 16.56 4.82098 16.56 5.32V13.68ZM14.76 4.56C14.76 4.78547 14.6967 5.00588 14.578 5.19335C14.4593 5.38082 14.2906 5.52694 14.0933 5.61322C13.896 5.69951 13.6788 5.72208 13.4693 5.6781C13.2598 5.63411 13.0674 5.52553 12.9163 5.3661C12.7653 5.20667 12.6624 5.00354 12.6208 4.7824C12.5791 4.56126 12.6005 4.33205 12.6822 4.12374C12.764 3.91543 12.9024 3.73739 13.08 3.61212C13.2576 3.48686 13.4664 3.42 13.68 3.42C13.9664 3.42 14.2411 3.54011 14.4437 3.7539C14.6462 3.96769 14.76 4.25765 14.76 4.56Z" fill="white"/>
</svg>
