<svg width="19" height="19" viewBox="0 0 19 19" fill="none" xmlns="http://www.w3.org/2000/svg">
<path d="M10.7305 4.13153L10.7341 4.13821V4.13513C10.7327 4.13411 10.7315 4.1329 10.7305 4.13153ZM10.9359 3.62109H10.9251L10.999 3.74742L10.9359 3.62109Z" fill="white"/>
<path d="M8.48414 1.3991C8.43859 1.2699 8.41894 1.13298 8.42632 0.99618C8.4337 0.859379 8.46795 0.72537 8.52713 0.601812C8.58631 0.478253 8.66925 0.367565 8.77122 0.276069C8.87319 0.184574 8.99219 0.114064 9.12142 0.0685688L9.15788 0.0552177C9.41651 -0.0330072 9.69959 -0.014958 9.94493 0.105401C10.1903 0.225759 10.3778 0.438583 10.4663 0.697119C10.555 0.9713 10.5317 1.26942 10.4016 1.52652C10.2715 1.78362 10.045 1.97888 9.77153 2.06976C9.643 2.11131 9.50749 2.12688 9.37288 2.11557C9.23827 2.10427 9.10726 2.0663 8.98746 2.00389C8.86766 1.94149 8.76146 1.85588 8.67505 1.75205C8.58865 1.64822 8.52375 1.52825 8.48414 1.3991Z" fill="white"/>
<path d="M11.1563 4.02102C11.1323 4.07313 11.0932 4.1168 11.044 4.1463C10.9948 4.1758 10.9378 4.18977 10.8806 4.18637C10.8285 4.18307 10.7783 4.16529 10.7358 4.13502C10.7346 4.13485 10.7335 4.13444 10.7326 4.13382C10.7316 4.1332 10.7307 4.13239 10.7301 4.13143L10.6161 3.93578L10.5396 3.80483L10.2607 3.32622C10.0733 4.17302 9.95264 4.99927 9.83042 5.82399C9.79807 6.03402 9.7652 6.24867 9.71385 6.4546C9.6969 6.52187 9.62244 6.57425 9.57314 6.63433C9.52641 6.56603 9.43911 6.49824 9.4386 6.42892C9.43295 6.07356 9.45092 5.71461 9.45811 5.36079C9.45811 5.21958 9.45452 5.07939 9.45246 4.93817C9.39344 5.04844 9.36557 5.17271 9.37184 5.29763C9.36157 5.66377 9.36157 6.03043 9.3359 6.39554C9.33025 6.4736 9.23627 6.54498 9.18184 6.61995C9.1346 6.55062 9.05551 6.48644 9.04421 6.40992C9.00211 6.16908 8.98208 5.92515 8.96 5.68123C8.88673 4.89383 8.81382 4.10524 8.74124 3.31544L8.67757 3.29593L8.35815 3.80021L8.25545 3.96556C8.21914 3.99023 8.17712 4.00519 8.13339 4.00899C8.08966 4.0128 8.04569 4.00533 8.00567 3.98731C7.96565 3.96928 7.93092 3.94129 7.90479 3.90602C7.87867 3.87075 7.86202 3.82937 7.85645 3.78583C7.9155 3.69545 7.97353 3.60455 8.03104 3.51469C8.24107 3.18912 8.44186 2.86919 8.66729 2.56724C8.7231 2.50015 8.79171 2.44485 8.86913 2.40456C8.94654 2.36426 9.0312 2.33979 9.11817 2.33256C10.3573 2.3228 10.0939 2.18518 10.7296 3.23482C10.8046 3.35857 10.8698 3.48695 10.935 3.62047H10.9242L10.9987 3.7468L11.0557 3.85772L11.0613 3.85464L11.0942 3.91112L11.1563 4.02102Z" fill="white"/>
<path d="M6.57458 4.83435H6.58177V4.83076C6.58098 4.83193 6.57991 4.83287 6.57865 4.8335C6.57739 4.83413 6.57599 4.83442 6.57458 4.83435ZM6.35736 4.33008C6.35419 4.33193 6.35125 4.33417 6.34863 4.33675L6.49088 4.37424L6.35736 4.33008Z" fill="white"/>
<path d="M3.05367 4.48804C2.80448 4.36814 2.6131 4.15419 2.52161 3.89322C2.43013 3.63226 2.44604 3.34564 2.56583 3.09639L2.58226 3.06096C2.70264 2.81566 2.91551 2.6282 3.17407 2.5398C3.43262 2.4514 3.7157 2.46929 3.96107 2.58955C4.21749 2.72077 4.41175 2.94792 4.50157 3.22161C4.59138 3.4953 4.56951 3.79339 4.4407 4.05103C4.37917 4.1716 4.29426 4.27871 4.19091 4.36612C4.08757 4.45354 3.96786 4.5195 3.83876 4.56018C3.70966 4.60086 3.57375 4.61542 3.43896 4.60304C3.30418 4.59065 3.1732 4.55156 3.05367 4.48804Z" fill="white"/>
<path d="M6.79764 4.45747C6.81221 4.49643 6.81804 4.53812 6.8147 4.57959C6.81135 4.62105 6.79892 4.66127 6.77828 4.69739C6.75765 4.73352 6.72932 4.76465 6.6953 4.78859C6.66129 4.81254 6.62242 4.8287 6.58145 4.83594H6.57528L6.35601 4.77739L6.20914 4.73939L5.67354 4.59766C6.13982 5.32892 6.63999 5.99855 7.13503 6.66818C7.26135 6.84073 7.39178 7.01429 7.49962 7.19659C7.5234 7.26958 7.53266 7.34652 7.52684 7.42306C7.4452 7.40817 7.33581 7.42306 7.28703 7.3717C7.03026 7.12419 6.7925 6.85818 6.5455 6.60142C6.44742 6.49872 6.3442 6.40474 6.24252 6.30718C6.27906 6.42718 6.34737 6.53506 6.44023 6.6194C6.69237 6.8854 6.95376 7.14524 7.19152 7.42152C7.24287 7.48057 7.22694 7.59766 7.24286 7.68855C7.15866 7.68746 7.07546 7.67001 6.99791 7.63719C6.79815 7.49649 6.61124 7.33832 6.42226 7.18221C5.81288 6.67794 5.20384 6.17195 4.59515 5.66425L4.53661 5.69557L4.6655 6.27637L4.70761 6.46739C4.69939 6.5107 4.68016 6.55116 4.65176 6.58487C4.62337 6.61859 4.58678 6.64444 4.54551 6.65992C4.50424 6.67539 4.45967 6.67998 4.41611 6.67324C4.37255 6.66651 4.33146 6.64867 4.29679 6.62145C4.2742 6.51566 4.25109 6.41142 4.2285 6.30563C4.14428 5.92717 4.06314 5.55846 4.00871 5.18616C4.00054 5.09915 4.00997 5.01139 4.03644 4.92811C4.06291 4.84483 4.10587 4.76772 4.16276 4.70139C5.03215 3.81865 4.74766 3.90801 5.94006 4.2002C6.08025 4.23512 6.2189 4.27979 6.36012 4.32652C6.35695 4.32838 6.35402 4.33062 6.35139 4.3332L6.49364 4.37068L6.61226 4.40869C6.61248 4.40681 6.61248 4.40491 6.61226 4.40304L6.67542 4.41947L6.79764 4.45747Z" fill="white"/>
<path d="M4.13283 8.26784L4.1395 8.26425H4.13642C4.13541 8.26562 4.13419 8.26683 4.13283 8.26784ZM3.62239 8.06243C3.62196 8.06601 3.62196 8.06963 3.62239 8.07321L3.74871 7.99927L3.62239 8.06243Z" fill="white"/>
<path d="M1.39905 10.5157C1.26984 10.5612 1.13293 10.5809 0.996126 10.5735C0.859325 10.5661 0.725317 10.5319 0.601759 10.4727C0.4782 10.4135 0.367511 10.3305 0.276015 10.2286C0.18452 10.1266 0.114011 10.0076 0.068516 9.87839L0.0551639 9.84193C-0.0330372 9.58322 -0.014916 9.30008 0.105545 9.05473C0.226005 8.80938 0.438949 8.62189 0.697579 8.53347C0.97176 8.4448 1.26987 8.46806 1.52698 8.5982C1.78408 8.72834 1.97934 8.95481 2.07022 9.22826C2.1119 9.35683 2.12756 9.4924 2.11629 9.62708C2.10501 9.76176 2.06703 9.89284 2.00455 10.0127C1.94207 10.1325 1.85635 10.2387 1.75239 10.3251C1.64843 10.4114 1.52832 10.4762 1.39905 10.5157Z" fill="white"/>
<path d="M4.02223 7.84277C4.07434 7.86676 4.118 7.90591 4.1475 7.95511C4.17701 8.00431 4.19097 8.06126 4.18758 8.11853C4.18428 8.17064 4.1665 8.2208 4.13623 8.26335C4.13606 8.26449 4.13565 8.26558 4.13503 8.26655C4.13441 8.26753 4.13359 8.26835 4.13263 8.26899L3.93698 8.38299L3.80603 8.45951L3.32743 8.73835C4.17423 8.92578 5.00049 9.04646 5.8252 9.16868C6.03523 9.20103 6.24988 9.2339 6.4558 9.28525C6.52308 9.3022 6.57545 9.37666 6.63554 9.42596C6.56724 9.47269 6.49945 9.55998 6.43013 9.5605C6.07477 9.56614 5.71582 9.54817 5.362 9.54098C5.22079 9.54098 5.08059 9.54458 4.93937 9.54663C5.04965 9.60565 5.17392 9.63352 5.29884 9.62726C5.66498 9.63753 6.03164 9.63753 6.39675 9.66321C6.4748 9.66885 6.54618 9.76282 6.62116 9.81726C6.55183 9.8645 6.48764 9.94358 6.41113 9.95488C6.17029 9.99699 5.92636 10.017 5.68244 10.0391C4.89504 10.1127 4.10644 10.1856 3.31665 10.2579L3.29713 10.3215L3.80141 10.6409L3.96677 10.7436C3.99144 10.78 4.00639 10.822 4.0102 10.8657C4.01401 10.9094 4.00654 10.9534 3.98851 10.9934C3.97049 11.0334 3.9425 11.0682 3.90723 11.0943C3.87195 11.1204 3.83057 11.1371 3.78703 11.1427C3.69665 11.0836 3.60576 11.0256 3.51589 10.9681C3.19032 10.7601 2.8704 10.5572 2.56845 10.3318C2.50136 10.276 2.44605 10.2074 2.40576 10.13C2.36547 10.0526 2.341 9.96791 2.33377 9.88094C2.32298 8.64386 2.18587 8.90781 3.23654 8.27156C3.3603 8.19659 3.48868 8.13137 3.62219 8.06615C3.62196 8.06974 3.62196 8.07335 3.62219 8.07694L3.74852 8.00247L3.85944 7.94548L3.85636 7.93983L3.91284 7.90696L4.02223 7.84277Z" fill="white"/>
<path d="M4.83435 12.4232V12.416H4.83076C4.83193 12.4168 4.83287 12.4179 4.8335 12.4191C4.83413 12.4204 4.83442 12.4218 4.83435 12.4232ZM4.33008 12.6404C4.33194 12.6436 4.33418 12.6465 4.33675 12.6491L4.37424 12.5069C4.35832 12.5521 4.34343 12.5963 4.33008 12.6404Z" fill="white"/>
<path d="M4.48804 15.9469C4.42885 16.0704 4.34591 16.1811 4.24393 16.2726C4.14195 16.3641 4.02295 16.4346 3.89371 16.4801C3.76448 16.5256 3.62754 16.5452 3.49074 16.5378C3.35393 16.5303 3.21993 16.496 3.09639 16.4368L3.06096 16.4203C2.81566 16.2999 2.6282 16.0871 2.5398 15.8285C2.4514 15.57 2.46929 15.2869 2.58955 15.0415C2.72077 14.7851 2.94792 14.5908 3.22161 14.501C3.4953 14.4112 3.79339 14.4331 4.05103 14.5619C4.17157 14.6232 4.27869 14.7078 4.36612 14.811C4.45356 14.9142 4.51954 15.0337 4.56023 15.1626C4.60092 15.2916 4.6155 15.4274 4.6031 15.562C4.5907 15.6967 4.55159 15.8275 4.48804 15.9469Z" fill="white"/>
<path d="M4.4565 12.2006C4.49546 12.186 4.53715 12.1802 4.57861 12.1836C4.62008 12.1869 4.6603 12.1993 4.69642 12.22C4.73254 12.2406 4.76367 12.2689 4.78762 12.303C4.81156 12.337 4.82773 12.3758 4.83496 12.4168C4.83538 12.4188 4.83538 12.4209 4.83496 12.423L4.77642 12.6422L4.73842 12.7891L4.59669 13.3247C5.32794 12.8584 5.99757 12.3583 6.66721 11.8632C6.83975 11.7369 7.01331 11.6065 7.19562 11.4986C7.2686 11.4749 7.34554 11.4656 7.42208 11.4714C7.40719 11.5531 7.42208 11.6624 7.37073 11.7112C7.12321 11.968 6.85721 12.2057 6.60045 12.4527C6.49774 12.5508 6.40377 12.6541 6.3062 12.7557C6.4262 12.7192 6.53409 12.6509 6.61842 12.558C6.88442 12.3059 7.14426 12.0445 7.42054 11.8067C7.47959 11.7554 7.59668 11.7713 7.68757 11.7554C7.68648 11.8396 7.66904 11.9228 7.63622 12.0003C7.49551 12.2001 7.33735 12.387 7.18124 12.576C6.67696 13.1854 6.17097 13.7944 5.66327 14.4031L5.6946 14.4616L6.27539 14.3327L6.46642 14.2906C6.50972 14.2989 6.55018 14.3181 6.5839 14.3465C6.61761 14.3749 6.64346 14.4115 6.65894 14.4527C6.67442 14.494 6.679 14.5386 6.67227 14.5821C6.66553 14.6257 6.64769 14.6668 6.62047 14.7015L6.30466 14.7698C5.92619 14.854 5.55749 14.9351 5.18518 14.9895C5.09818 14.9977 5.01042 14.9883 4.92713 14.9618C4.84385 14.9353 4.76675 14.8924 4.70042 14.8355C3.81768 13.9661 3.90703 14.2506 4.19922 13.0582C4.23414 12.918 4.27882 12.7794 4.32555 12.6381C4.32741 12.6413 4.32965 12.6442 4.33222 12.6469L4.36971 12.5046C4.38255 12.4656 4.39487 12.4266 4.40771 12.386H4.40206L4.41849 12.3228L4.4565 12.2006Z" fill="white"/>
<path d="M8.26858 14.8668L8.26498 14.8601V14.8632C8.26635 14.8642 8.26756 14.8654 8.26858 14.8668ZM8.06316 15.3772H8.07395L8 15.2509L8.06316 15.3772Z" fill="white"/>
<path d="M10.5157 17.6017C10.5612 17.7309 10.5809 17.8678 10.5735 18.0046C10.5661 18.1414 10.5319 18.2754 10.4727 18.399C10.4135 18.5225 10.3305 18.6332 10.2286 18.7247C10.1266 18.8162 10.0076 18.8867 9.87839 18.9322L9.84193 18.9456C9.58335 19.0338 9.30033 19.0158 9.055 18.8956C8.80967 18.7753 8.6221 18.5626 8.53347 18.3042C8.4448 18.03 8.46806 17.7319 8.5982 17.4748C8.72834 17.2177 8.95481 17.0224 9.22826 16.9315C9.35676 16.8898 9.49227 16.8741 9.6269 16.8853C9.76152 16.8966 9.89257 16.9345 10.0124 16.9968C10.1322 17.0592 10.2384 17.1448 10.3248 17.2487C10.4113 17.3525 10.4761 17.4725 10.5157 17.6017Z" fill="white"/>
<path d="M7.84277 14.9776C7.86676 14.9254 7.90591 14.8818 7.95511 14.8523C8.00431 14.8228 8.06126 14.8088 8.11853 14.8122C8.17064 14.8155 8.2208 14.8333 8.26335 14.8636C8.26449 14.8637 8.26558 14.8641 8.26655 14.8648C8.26753 14.8654 8.26835 14.8662 8.26899 14.8672L8.38299 15.0628L8.45951 15.1937L8.73835 15.6724C8.92578 14.8256 9.04646 13.9993 9.16868 13.1746C9.20103 12.9646 9.2339 12.7499 9.28525 12.544C9.3022 12.4767 9.37666 12.4243 9.42596 12.3643C9.47269 12.4326 9.55998 12.5003 9.5605 12.5697C9.56614 12.925 9.54817 13.2819 9.54098 13.6378C9.54098 13.779 9.54458 13.9192 9.54663 14.0604C9.60565 13.9501 9.63352 13.8259 9.62726 13.701C9.63753 13.3348 9.63753 12.9682 9.66321 12.603C9.66885 12.525 9.76282 12.4536 9.81726 12.3786C9.8645 12.448 9.94358 12.5121 9.95488 12.5887C9.99699 12.8295 10.017 13.0734 10.0391 13.3173C10.1127 14.1047 10.1856 14.8933 10.2579 15.6831L10.3215 15.7027L10.6409 15.2004L10.7436 15.0351C10.78 15.0104 10.822 14.9955 10.8657 14.9917C10.9094 14.9878 10.9534 14.9953 10.9934 15.0133C11.0334 15.0314 11.0682 15.0593 11.0943 15.0946C11.1204 15.1299 11.1371 15.1713 11.1427 15.2148C11.0836 15.3052 11.0256 15.3961 10.9681 15.4859C10.7601 15.8115 10.5572 16.1314 10.3318 16.4334C10.276 16.5005 10.2074 16.5558 10.13 16.5961C10.0526 16.6364 9.96791 16.6608 9.88094 16.6681C8.64181 16.6778 8.90525 16.8155 8.26951 15.7658C8.19453 15.6421 8.12932 15.5137 8.0641 15.3802H8.07488L8.00042 15.2538L7.94496 15.1414L7.93931 15.1445L7.90645 15.088L7.84277 14.9776Z" fill="white"/>
<path d="M12.4242 14.1641H12.417V14.1677C12.4178 14.1665 12.4189 14.1656 12.4201 14.1649C12.4214 14.1643 12.4228 14.164 12.4242 14.1641ZM12.6414 14.6683C12.6446 14.6665 12.6475 14.6642 12.6501 14.6617L12.5079 14.6242L12.6414 14.6683Z" fill="white"/>
<path d="M15.9456 14.5104C16.0692 14.5696 16.1799 14.6525 16.2714 14.7545C16.3629 14.8565 16.4334 14.9755 16.4789 15.1047C16.5244 15.234 16.544 15.3709 16.5366 15.5077C16.5291 15.6445 16.4948 15.7785 16.4355 15.902L16.4191 15.9375C16.2987 16.1828 16.0859 16.3702 15.8273 16.4586C15.5688 16.547 15.2857 16.5291 15.0403 16.4089C14.7839 16.2777 14.5896 16.0505 14.4998 15.7768C14.41 15.5031 14.4319 15.205 14.5607 14.9474C14.6221 14.827 14.7069 14.72 14.81 14.6327C14.9132 14.5454 15.0327 14.4795 15.1616 14.4388C15.2905 14.3982 15.4262 14.3835 15.5608 14.3958C15.6954 14.4081 15.8262 14.4471 15.9456 14.5104Z" fill="white"/>
<path d="M12.2016 14.5465C12.187 14.5075 12.1812 14.4659 12.1845 14.4244C12.1879 14.3829 12.2003 14.3427 12.2209 14.3066C12.2416 14.2705 12.2699 14.2393 12.3039 14.2154C12.3379 14.1914 12.3768 14.1753 12.4178 14.168H12.4239L12.6432 14.2266L12.7901 14.2646L13.3257 14.4063C12.8594 13.6751 12.3592 13.0054 11.8642 12.3358C11.7379 12.1633 11.6074 11.9897 11.4996 11.8074C11.4758 11.7344 11.4666 11.6575 11.4724 11.5809C11.554 11.5958 11.6634 11.5809 11.7122 11.6323C11.9689 11.8798 12.2067 12.1458 12.4537 12.4026C12.5518 12.5053 12.655 12.5992 12.7567 12.6968C12.7202 12.5768 12.6519 12.4689 12.559 12.3846C12.3069 12.1186 12.0455 11.8587 11.8077 11.5825C11.7564 11.5234 11.7723 11.4063 11.7564 11.3154C11.8406 11.3165 11.9238 11.334 12.0013 11.3668C12.2011 11.5075 12.388 11.6656 12.577 11.8218C13.1863 12.326 13.7954 12.832 14.4041 13.3397L14.4626 13.3084L14.3337 12.7276L14.2916 12.5366C14.2998 12.4933 14.3191 12.4528 14.3475 12.4191C14.3759 12.3854 14.4124 12.3595 14.4537 12.3441C14.495 12.3286 14.5395 12.324 14.5831 12.3307C14.6267 12.3375 14.6678 12.3553 14.7024 12.3825C14.725 12.4883 14.7481 12.5926 14.7707 12.6983C14.8549 13.0768 14.9361 13.4455 14.9905 13.8178C14.9987 13.9048 14.9893 13.9926 14.9628 14.0759C14.9363 14.1592 14.8934 14.2362 14.8365 14.3026C13.9671 15.1853 14.2516 15.096 13.0592 14.8038C12.919 14.7689 12.7803 14.7242 12.6391 14.678C12.6423 14.6761 12.6452 14.6739 12.6478 14.6713L12.5056 14.6338L12.387 14.5958C12.3867 14.5977 12.3867 14.5996 12.387 14.6014L12.3238 14.585L12.2016 14.5465Z" fill="white"/>
<path d="M14.867 10.7305L14.8604 10.7341H14.8634C14.8645 10.7327 14.8657 10.7315 14.867 10.7305ZM15.3775 10.9359C15.3779 10.9323 15.3779 10.9287 15.3775 10.9251L15.2511 10.999L15.3775 10.9359Z" fill="white"/>
<path d="M17.5999 8.48414C17.7291 8.43859 17.8661 8.41894 18.0029 8.42632C18.1397 8.4337 18.2737 8.46795 18.3972 8.52713C18.5208 8.58631 18.6315 8.66925 18.723 8.77122C18.8145 8.87319 18.885 8.99219 18.9305 9.12142L18.9438 9.15788C19.032 9.41651 19.014 9.69959 18.8936 9.94493C18.7733 10.1903 18.5604 10.3778 18.3019 10.4663C18.0277 10.555 17.7296 10.5317 17.4725 10.4016C17.2154 10.2715 17.0201 10.045 16.9293 9.77153C16.8877 9.643 16.8722 9.50749 16.8835 9.37288C16.8948 9.23827 16.9327 9.10726 16.9951 8.98746C17.0575 8.86766 17.1432 8.76146 17.247 8.67505C17.3508 8.58865 17.4708 8.52375 17.5999 8.48414Z" fill="white"/>
<path d="M14.9766 11.1561C14.9245 11.1321 14.8808 11.093 14.8513 11.0438C14.8218 10.9946 14.8078 10.9376 14.8112 10.8803C14.8145 10.8282 14.8323 10.7781 14.8626 10.7355C14.8628 10.7344 14.8632 10.7333 14.8638 10.7323C14.8644 10.7313 14.8652 10.7305 14.8662 10.7299L15.0618 10.6159L15.1928 10.5393L15.6714 10.2605C14.8246 10.0731 13.9983 9.95239 13.1736 9.83017C12.9636 9.79782 12.7489 9.76495 12.543 9.7136C12.4757 9.69666 12.4234 9.62219 12.3633 9.5729C12.4316 9.52617 12.4994 9.43887 12.5687 9.43836C12.924 9.43271 13.2809 9.45068 13.6368 9.45787C13.778 9.45787 13.9182 9.45427 14.0594 9.45222C13.9492 9.3932 13.8249 9.36533 13.7 9.3716C13.3338 9.36133 12.9672 9.36133 12.6021 9.33565C12.524 9.33001 12.4526 9.23603 12.3777 9.1816C12.447 9.13435 12.5112 9.05527 12.5877 9.04397C12.8285 9.00186 13.0724 8.98183 13.3164 8.95975C14.1038 8.88649 14.8924 8.81357 15.6822 8.74099L15.7017 8.67732L15.1994 8.35791L15.0341 8.2552C15.0094 8.2189 14.9945 8.17688 14.9907 8.13315C14.9869 8.08942 14.9943 8.04545 15.0123 8.00542C15.0304 7.9654 15.0584 7.93067 15.0936 7.90455C15.1289 7.87842 15.1703 7.86178 15.2138 7.8562C15.3042 7.91526 15.3951 7.97328 15.485 8.0308C15.8105 8.24083 16.1305 8.44161 16.4324 8.66705C16.4995 8.72286 16.5548 8.79147 16.5951 8.86888C16.6354 8.94629 16.6599 9.03095 16.6671 9.11792C16.6769 10.3571 16.8145 10.0936 15.7648 10.7293C15.6411 10.8043 15.5127 10.8695 15.3792 10.9348C15.3794 10.9312 15.3794 10.9276 15.3792 10.924L15.2529 10.9984L15.1404 11.0539L15.1435 11.0595L15.087 11.0924L14.9766 11.1561Z" fill="white"/>
<path d="M14.1641 6.57385V6.58104H14.1677C14.1665 6.58025 14.1656 6.57918 14.1649 6.57792C14.1643 6.57666 14.164 6.57526 14.1641 6.57385ZM14.6683 6.35663C14.6665 6.35346 14.6642 6.35052 14.6617 6.3479L14.6242 6.49015C14.6401 6.44496 14.655 6.40079 14.6683 6.35663Z" fill="white"/>
<path d="M14.5092 3.05367C14.6291 2.80448 14.843 2.6131 15.104 2.52161C15.3649 2.43013 15.6516 2.44604 15.9008 2.56583L15.9362 2.58226C16.1815 2.70264 16.369 2.91551 16.4574 3.17407C16.5458 3.43262 16.5279 3.7157 16.4077 3.96107C16.2764 4.21749 16.0493 4.41175 15.7756 4.50157C15.5019 4.59138 15.2038 4.56951 14.9462 4.4407C14.8258 4.37896 14.7189 4.29394 14.6316 4.19057C14.5444 4.08719 14.4785 3.96752 14.4379 3.8385C14.3972 3.70947 14.3826 3.57366 14.3948 3.43894C14.4071 3.30421 14.4459 3.17326 14.5092 3.05367Z" fill="white"/>
<path d="M14.5455 6.79764C14.5066 6.81221 14.4649 6.81804 14.4234 6.8147C14.3819 6.81135 14.3417 6.79892 14.3056 6.77828C14.2695 6.75765 14.2383 6.72932 14.2144 6.6953C14.1905 6.66129 14.1743 6.62242 14.1671 6.58145C14.1666 6.57942 14.1666 6.57732 14.1671 6.57528L14.2256 6.35601L14.2636 6.20914L14.4053 5.67354C13.6741 6.13982 13.0045 6.63999 12.3348 7.13503C12.1623 7.26135 11.9887 7.39178 11.8064 7.49962C11.7334 7.5234 11.6565 7.53266 11.5799 7.52684C11.5948 7.4452 11.5799 7.33581 11.6313 7.28703C11.8788 7.03026 12.1448 6.7925 12.4016 6.5455C12.5043 6.44742 12.5983 6.3442 12.6958 6.24252C12.5758 6.27906 12.4679 6.34737 12.3836 6.44023C12.1176 6.69237 11.8578 6.95376 11.5815 7.19152C11.5224 7.24287 11.4053 7.22694 11.3145 7.24286C11.3155 7.15866 11.333 7.07546 11.3658 6.99791C11.5065 6.79815 11.6647 6.61124 11.8208 6.42226C12.3251 5.81288 12.831 5.20384 13.3387 4.59515L13.3074 4.53661L12.7266 4.6655L12.5356 4.70761C12.4786 4.69719 12.4269 4.66745 12.3892 4.62339C12.3501 4.57843 12.3278 4.52125 12.3262 4.46166C12.3246 4.40207 12.3438 4.34378 12.3805 4.29679L12.6963 4.2285C13.0748 4.14428 13.4435 4.06314 13.8158 4.00871C13.9028 4.00054 13.9906 4.00997 14.0739 4.03644C14.1571 4.06291 14.2343 4.10587 14.3006 4.16276C15.1833 5.03215 15.094 4.74766 14.8018 5.94006C14.7668 6.08025 14.7222 6.2189 14.676 6.36012C14.6741 6.35695 14.6719 6.35402 14.6693 6.35139L14.6318 6.49364C14.619 6.53266 14.6066 6.57169 14.5938 6.61226H14.5995L14.583 6.67542L14.5455 6.79764Z" fill="white"/>
<path d="M14.6546 6.25804L14.5283 6.06958L14.6546 6.25804Z" fill="white"/>
<path d="M14.8974 5.85748L14.8154 5.7356H14.8262L14.8974 5.85748Z" fill="white"/>
<path d="M14.9665 5.965L14.9629 5.9696C14.9409 5.93375 14.9209 5.89791 14.8994 5.86206L14.9665 5.965Z" fill="white"/>
<path d="M10.3192 11.2464C10.1968 11.3633 9.80558 11.6879 9.4263 11.8028H9.42515C9.421 11.8045 9.00177 11.9571 8.65974 11.9571C8.60773 11.9577 8.55571 11.9537 8.50443 11.9451C8.44597 11.8859 7.84957 11.2735 7.78125 10.7803C8.38058 11.2295 8.92284 11.3286 9.27285 11.3322C9.29511 11.3372 9.3411 11.3397 9.43567 11.3397C9.60835 11.3392 9.89917 11.3228 10.3192 11.2464Z" fill="white"/>
<path d="M9.27177 11.3024C9.08816 11.2881 8.55577 11.2108 8.27441 11.035L8.26911 11.0318H8.26699C8.22802 11.0142 7.71364 10.7723 7.5293 10.4392C7.53191 10.3618 7.56737 9.51894 7.88175 9.13184C7.9628 9.87507 8.25957 10.3384 8.49568 10.5969C8.50905 10.6161 8.52365 10.6344 8.5393 10.6517C8.56629 10.6832 8.61268 10.735 8.68092 10.8029C8.79327 10.9139 8.98438 11.0887 9.27177 11.3024Z" fill="white"/>
<path d="M8.52386 10.5727C8.41755 10.4607 8.13032 10.0894 8.03166 9.6504L8.03028 9.64421L8.02922 9.64331C8.01495 9.59659 7.85645 9.05213 7.93847 8.70775C7.99954 8.65287 8.62953 8.0979 9.12483 8.05664C8.64396 8.6316 8.51604 9.16758 8.4937 9.51669C8.48391 9.55566 8.47527 9.6734 8.47332 9.79161C8.47144 9.95076 8.47796 10.2128 8.52386 10.5727Z" fill="white"/>
<path d="M9.26551 8.77505V8.77554C9.22605 8.7987 9.12316 8.88838 9.05484 8.95312C8.93955 9.06245 8.75725 9.25054 8.53223 9.53533C8.53777 9.38123 8.60194 8.91618 8.84694 8.53837L8.85044 8.53299V8.53168C8.87351 8.48912 9.15251 7.9944 9.45532 7.8125C9.53726 7.8178 10.3745 7.87968 10.7505 8.20474C10.0036 8.26296 9.53082 8.5466 9.26551 8.77505Z" fill="white"/>
<path d="M11.7048 9.42517C11.1174 8.96289 10.5786 8.85021 10.2286 8.83831C10.2093 8.83505 10.1897 8.83293 10.1701 8.83211C10.1354 8.82951 10.0769 8.82633 9.99566 8.82633C9.82999 8.82633 9.55548 8.83937 9.17188 8.90019C9.28104 8.7907 9.64304 8.49205 10.079 8.38052L10.0851 8.37897L10.0862 8.37782C10.133 8.3603 10.5144 8.24224 10.8318 8.24224C10.8943 8.24159 10.9567 8.24713 11.0182 8.25903C11.0748 8.31839 11.6485 8.93126 11.7048 9.42517Z" fill="white"/>
<path d="M11.6053 11.4106C11.546 11.4673 10.9341 12.042 10.4404 12.0992C10.9026 11.5098 11.0133 10.9697 11.0246 10.6197C11.0332 10.5779 11.0379 10.4519 11.0362 10.3444C11.0337 10.1853 11.0186 9.92376 10.9612 9.56543C11.071 9.67403 11.3705 10.0359 11.4826 10.4717L11.4841 10.4777L11.4852 10.4787C11.4893 10.4907 11.5047 10.5383 11.5241 10.6082C11.5617 10.744 11.6131 10.9638 11.6216 11.1706C11.6256 11.251 11.6202 11.3315 11.6053 11.4106Z" fill="white"/>
<path d="M10.7437 11.5047L10.7406 11.5104V11.5118C10.7211 11.5562 10.4827 12.071 10.1948 12.2764H10.1594C10.0067 12.2764 9.24678 12.2621 8.87305 11.9872C9.61131 11.8706 10.0596 11.5514 10.3064 11.303C10.3256 11.2884 10.3439 11.2727 10.3611 11.256C10.3927 11.2267 10.4443 11.1772 10.5108 11.1048C10.6202 10.9857 10.7903 10.7833 10.9918 10.4834C10.9927 10.6388 10.963 11.1001 10.7437 11.5047Z" fill="white"/>
<path d="M11.1064 9.63517H11.1059C11.0835 9.59514 10.9961 9.49038 10.933 9.42075C10.8258 9.30286 10.6421 9.11631 10.3623 8.88477C10.5163 8.89365 10.9797 8.96776 11.3523 9.221L11.3576 9.22467H11.3589C11.4008 9.24864 11.8894 9.53815 12.0646 9.84512C12.0576 9.92697 11.9774 10.7625 11.6443 11.1315C11.6021 10.3842 11.3289 9.90553 11.1064 9.63517Z" fill="white"/>
<path d="M10.5543 9.65669V10.2652C10.5543 10.3738 10.5437 10.4686 10.5234 10.55C10.4844 10.6771 10.4107 10.7888 10.3133 10.8741C10.2343 10.9436 10.1396 10.9957 10.0352 11.0245C9.97515 11.041 9.91189 11.0499 9.84658 11.0499H9.74654C9.67757 11.0499 9.61087 11.04 9.54785 11.0215C9.63566 10.996 9.71638 10.9538 9.78641 10.8987C9.78983 10.8959 9.79342 10.8931 9.79685 10.8902C9.80141 10.8865 9.80581 10.8828 9.8103 10.8788C9.92257 10.8099 10.0015 10.6881 10.0373 10.5077C10.0498 10.4559 10.0565 10.402 10.0568 10.3464C10.0583 10.3201 10.059 10.293 10.059 10.265V9.32812L10.5543 9.65669Z" fill="white"/>
<path d="M9.7867 10.8984C9.71666 10.9535 9.63595 10.9957 9.54814 11.0212C9.45324 10.9936 9.36665 10.9466 9.29279 10.8846H9.2927C9.19063 10.7992 9.11293 10.6855 9.07184 10.5554C9.07184 10.5553 9.07176 10.5551 9.07176 10.555C9.05056 10.4726 9.03906 10.3762 9.03906 10.2648V9.45576L9.51634 9.04004V10.3418C9.51634 10.5656 9.62013 10.765 9.78222 10.8945C9.78368 10.8959 9.78515 10.8971 9.7867 10.8984Z" fill="white"/>
</svg>
