<svg width="18" height="18" viewBox="0 0 18 18" fill="none" xmlns="http://www.w3.org/2000/svg">
<path d="M3.77755 2.00089C3.77729 2.53129 3.57806 3.03987 3.22367 3.41473C2.86928 3.7896 2.38876 4.00004 1.88783 3.99978C1.38689 3.99951 0.906577 3.78856 0.552541 3.41332C0.198504 3.03808 -0.00025023 2.52929 2.36438e-07 1.99889C0.000250703 1.46849 0.199486 0.959911 0.553877 0.585047C0.908267 0.210183 1.38878 -0.000264951 1.88972 2.50348e-07C2.39065 0.000265452 2.87097 0.211222 3.225 0.586461C3.57904 0.961701 3.7778 1.47049 3.77755 2.00089ZM3.83421 5.4807H0.0566634V18H3.83421V5.4807ZM9.80273 5.4807H6.04407V18H9.76495V11.4304C9.76495 7.77057 14.2697 7.43059 14.2697 11.4304V18H18V10.0704C18 3.90078 11.3326 4.13077 9.76495 7.1606L9.80273 5.4807Z" fill="white"/>
</svg>
