<svg width="12" height="16" viewBox="0 0 12 16" fill="none" xmlns="http://www.w3.org/2000/svg">
<path d="M6 8C6.4125 8 6.76575 7.8432 7.05975 7.5296C7.35325 7.21653 7.5 6.84 7.5 6.4C7.5 5.96 7.35325 5.5832 7.05975 5.2696C6.76575 4.95653 6.4125 4.8 6 4.8C5.5875 4.8 5.2345 4.95653 4.941 5.2696C4.647 5.5832 4.5 5.96 4.5 6.4C4.5 6.84 4.647 7.21653 4.941 7.5296C5.2345 7.8432 5.5875 8 6 8ZM6 13.88C7.525 12.3867 8.65625 11.0299 9.39375 9.8096C10.1312 8.58987 10.5 7.50667 10.5 6.56C10.5 5.10667 10.0655 3.91653 9.1965 2.9896C8.328 2.0632 7.2625 1.6 6 1.6C4.7375 1.6 3.67175 2.0632 2.80275 2.9896C1.93425 3.91653 1.5 5.10667 1.5 6.56C1.5 7.50667 1.86875 8.58987 2.60625 9.8096C3.34375 11.0299 4.475 12.3867 6 13.88ZM6 16C3.9875 14.1733 2.4845 12.4765 1.491 10.9096C0.497 9.3432 0 7.89333 0 6.56C0 4.56 0.60325 2.96667 1.80975 1.78C3.01575 0.593333 4.4125 0 6 0C7.5875 0 8.98425 0.593333 10.1902 1.78C11.3967 2.96667 12 4.56 12 6.56C12 7.89333 11.5033 9.3432 10.5098 10.9096C9.51575 12.4765 8.0125 14.1733 6 16Z" fill="white"/>
</svg>
