<svg width="176" height="48" viewBox="0 0 176 48" fill="none" xmlns="http://www.w3.org/2000/svg">
<path d="M51.8927 31.7714C51.3985 32.0473 50.8549 32.3233 50.2618 32.5993C47.1482 33.9791 43.7381 34.6691 40.328 35.497C38.5489 35.9109 36.7697 36.3249 34.9905 36.8768C33.3596 37.5667 31.7287 37.9807 29.8012 37.9807C27.1325 37.9807 24.4637 37.9807 21.7949 37.9807C18.2366 38.1187 15.4195 39.4985 13.4921 42.2582C13.1956 42.6721 12.7508 42.8101 12.306 42.8101C8.4511 42.8101 4.59621 42.8101 0.741324 42.8101C0.593059 42.8101 0.29653 42.8101 0 42.8101L0.88959 41.7063C2.66877 39.9125 4.44795 37.9807 6.22713 36.1869C7.85804 34.5311 9.48895 32.8753 11.1199 31.3574C12.306 30.3915 13.6404 29.5636 14.9748 28.8737C17.347 27.3558 19.8675 27.4938 22.388 28.4597C24.4637 29.1497 26.3911 29.1496 28.4669 28.7357C30.3943 28.3217 32.47 28.3217 34.3975 28.1838C34.5951 28.1838 34.8422 28.2298 35.1388 28.3217C35.5836 28.5977 35.8801 28.8737 36.3249 29.1497C36.0284 29.5636 35.7318 29.9775 35.4353 30.1155C34.694 30.3915 33.8044 30.6675 33.0631 30.9434C32.8654 31.0354 32.6183 31.0814 32.3217 31.0814C32.7171 31.2654 33.0631 31.3114 33.3596 31.2194C35.1388 31.0355 36.918 30.8055 38.6971 30.5295C41.5636 30.1616 44.43 29.7936 47.2965 29.4256C47.7413 29.4256 48.1861 29.5636 48.6309 29.5636C48.9274 29.7016 49.2239 29.8396 49.5205 29.8396C50.5583 29.8396 51.2996 30.3915 51.8927 31.0814V31.7714Z" fill="#9C7D9C"/>
<path d="M17.1981 22.9422C19.2738 21.5624 21.4978 20.5965 23.87 20.1825L23.1287 18.5267C24.0183 18.8027 23.87 20.3205 25.3527 20.0445L25.0562 17.4229H25.3527C25.6492 18.2508 25.8963 19.0786 26.094 19.9066C27.4284 20.0445 28.911 20.4585 29.6524 18.6647L29.8006 18.9407L29.2076 20.1825C34.5451 21.4244 38.2517 24.4601 40.1792 29.2895L37.6587 29.5655C37.0656 28.0476 35.7312 27.2198 34.1003 27.2198C32.0246 27.2198 29.9489 27.2197 28.0215 27.6337C26.094 28.0477 24.1666 28.0476 22.3874 27.3577C20.6082 26.8058 18.829 26.5298 17.0499 26.9438C15.7155 27.2197 14.2328 27.7717 12.8984 28.1856C13.788 26.2538 15.2707 24.4601 17.1981 22.9422V22.9422Z" fill="#686868"/>
<path d="M24.7604 17.0072C24.7604 16.9153 24.711 16.8233 24.6121 16.7313C20.4607 11.9018 22.2399 3.48478 28.1705 0.725086C29.3566 0.173148 30.691 -0.102821 32.0254 0.0351632C32.4702 0.173148 32.6184 0.311132 32.4702 0.725086C32.4702 1.55299 32.6184 2.24293 32.4702 3.07084C32.4702 4.86464 32.6184 6.79642 32.3219 8.59022C31.5806 12.1778 29.0601 14.7995 26.3913 17.4212C26.243 17.4212 26.243 17.4212 26.0948 17.4212C25.65 13.9716 25.65 10.66 27.2809 7.48632C26.8361 8.03826 26.3913 8.72817 26.0948 9.4181C25.2052 11.9018 24.9086 14.3856 25.0569 16.8693L24.7604 17.0072Z" fill="#1B9A7F"/>
<path d="M12.7506 10.3843C16.6055 9.69433 20.6087 11.6261 22.3878 14.9377C22.8821 15.8576 23.1292 16.8235 23.1292 17.8354C22.3384 17.1915 21.4983 16.5016 20.6087 15.7656C19.3237 14.7538 18.3353 14.2478 17.6434 14.2478C19.7191 15.3517 21.35 17.0075 22.8326 19.0773C21.943 18.9393 21.2017 18.9393 20.4604 18.8013C17.0503 18.5254 14.2333 17.1455 12.1576 14.6618C11.4162 13.8339 10.6749 13.006 9.93359 12.0401C10.5267 11.0742 11.5645 10.6602 12.7506 10.3843V10.3843Z" fill="#1B9A7F"/>
<path d="M29.8008 17.5591C30.2456 13.4196 35.2866 9.83195 39.7345 10.6599C40.7724 10.7978 41.662 11.3498 42.5516 11.7637C42.9964 12.0397 43.1446 12.4536 42.5516 12.8676C42.1562 13.2355 41.8102 13.6035 41.5137 13.9715C39.2403 17.0991 36.1268 18.8469 32.173 19.2149C31.58 19.2149 30.9869 19.2149 30.0973 19.3529C31.58 17.1451 33.3591 15.4893 35.5831 14.3854C33.2109 15.0753 31.58 16.7312 29.8008 18.525C29.8008 18.111 29.8008 17.8351 29.8008 17.5591V17.5591Z" fill="#1B9A7F"/>
<path d="M80.6597 36.4278C82.2343 34.9081 83.6432 33.3885 84.8863 31.8688C86.1708 30.3491 87.3518 28.6606 88.4292 26.8032C89.548 24.9036 90.5632 22.7507 91.4748 20.3445C92.4278 17.8962 93.3602 15.0257 94.2718 11.733C94.769 9.83343 95.1834 7.99715 95.5149 6.22419C95.8878 4.45123 96.0329 2.72048 95.95 1.03195C95.95 0.694245 95.9707 0.525391 96.0122 0.525391C96.095 0.525391 96.1572 0.588711 96.1986 0.715352C96.2401 0.84199 96.2815 0.947524 96.3229 1.03195C96.9445 3.01598 97.1517 5.10554 96.9445 7.30063C96.7373 9.45351 96.3437 11.6697 95.7635 13.9492C95.1834 16.1865 94.4997 18.466 93.7124 20.7878C92.9665 23.1095 92.3243 25.4312 91.7856 27.753C91.4541 29.1882 91.2055 30.7079 91.0397 32.312C90.874 33.9161 90.8118 35.5202 90.8532 37.1243C90.9361 38.6862 91.1433 40.227 91.4748 41.7467C91.8063 43.2664 92.3243 44.6805 93.0287 45.9891C93.0701 46.0313 93.0908 46.0947 93.0908 46.1791V46.3057C92.9665 46.3057 92.8837 46.2846 92.8422 46.2424L92.7179 46.1158C91.1019 44.3428 90.0038 42.1688 89.4237 39.5938C88.8435 40.3114 88.2427 41.008 87.6211 41.6834C87.041 42.3588 86.2123 43.0553 85.1349 43.7729C83.3946 44.9549 81.447 45.757 79.2923 46.1791C77.179 46.6434 75.0657 46.369 72.9524 45.3559C71.7093 44.7227 70.7562 43.8996 70.0932 42.8865C69.4303 41.8311 68.933 40.7125 68.6015 39.5305C68.3114 38.3063 68.125 37.0821 68.0421 35.8579C68.0007 34.5915 67.9592 33.4518 67.9178 32.4387C67.8349 30.4546 67.9178 28.5339 68.1664 26.6765C68.4565 24.8192 68.8294 23.0884 69.2852 21.4843C69.741 19.838 70.259 18.3605 70.8391 17.0519C71.4192 15.7433 71.9786 14.6457 72.5173 13.7593C72.5588 13.6748 72.6209 13.5904 72.7038 13.506C72.8281 13.3793 72.911 13.316 72.9524 13.316C73.0353 13.3582 73.0353 13.4849 72.9524 13.6959C72.911 13.8648 72.8695 13.9914 72.8281 14.0759C72.2065 15.9755 71.6471 17.9173 71.1499 19.9013C70.6526 21.8853 70.2797 23.8905 70.0311 25.9167C69.7825 27.9429 69.6789 29.9903 69.7203 32.0587C69.8032 34.085 70.0932 36.1323 70.5905 38.2008C70.7977 39.045 71.1085 39.9315 71.5228 40.8602C71.9372 41.7467 72.6209 42.5487 73.574 43.2664C74.1126 43.6885 74.672 43.984 75.2522 44.1528C75.8323 44.3217 76.3917 44.4272 76.9304 44.4695C77.4691 44.4695 77.9663 44.4272 78.4221 44.3428C78.9193 44.2584 79.3752 44.1528 79.7895 44.0262C81.6542 43.5619 83.2495 42.7176 84.5755 41.4934C85.9429 40.2692 87.1032 39.0239 88.0562 37.7575C88.4292 37.3354 88.7399 36.8499 88.9886 36.3012C88.9471 35.4991 88.9679 34.5704 89.0507 33.5151C89.1336 32.4598 89.2372 31.4678 89.3615 30.5391C89.4858 29.6104 89.5894 28.8294 89.6723 28.1962C89.7552 27.563 89.7759 27.2675 89.7344 27.3097C88.7814 29.4626 87.6419 31.3622 86.3159 33.0085C85.0313 34.6126 83.9125 35.9213 82.9595 36.9344C82.3379 37.6098 81.6335 38.2008 80.8462 38.7073C80.1003 39.2139 79.3544 39.5727 78.6086 39.7838C77.8627 39.9948 77.179 39.9948 76.5574 39.7838C75.9359 39.5727 75.4801 39.0873 75.19 38.3274C74.6099 36.5967 74.1955 34.6971 73.9469 32.6286C73.6983 30.518 73.6776 28.3862 73.8847 26.2333C74.3405 21.9275 75.335 17.6851 76.8682 13.506C78.4428 9.32687 80.639 5.50656 83.4567 2.04507C83.6225 1.834 83.7675 1.68626 83.8918 1.60183C84.0576 1.5174 84.0161 1.68626 83.7675 2.10839C82.8559 3.54364 81.965 5.18996 81.0948 7.04735C80.2661 8.90473 79.4995 10.8677 78.795 12.9361C78.132 14.9623 77.5312 17.0519 76.9925 19.2048C76.4953 21.3577 76.1431 23.4472 75.9359 25.4735C75.7287 27.4997 75.6458 29.5048 75.6873 31.4889C75.7287 33.4307 76.0395 35.1614 76.6196 36.6811C76.8268 37.2299 77.0961 37.5887 77.4276 37.7575C77.8005 37.8842 78.1735 37.9053 78.5464 37.8209C78.9193 37.6942 79.2923 37.5043 79.6652 37.251C80.0382 36.9555 80.3696 36.6811 80.6597 36.4278ZM81.6542 41.4934C81.1984 41.7467 80.7219 42 80.2246 42.2533C79.7274 42.5065 79.2094 42.7176 78.6707 42.8865C78.1735 43.0131 77.6348 43.0764 77.0547 43.0764C76.4746 43.0764 75.8737 42.9709 75.2522 42.7598C74.0505 42.3377 73.1803 41.6412 72.6416 40.6703C72.1444 39.6571 71.7507 38.6862 71.4607 37.7575C70.7977 35.7313 70.4869 33.7262 70.5283 31.7421C70.6112 29.7159 70.777 27.563 71.0256 25.2835C71.1913 23.6794 71.5228 21.9275 72.0201 20.0279C72.5588 18.0861 73.2217 16.1654 74.0091 14.2658C74.7964 12.3662 75.6665 10.5933 76.6196 8.94695C77.6141 7.30063 78.65 5.9498 79.7274 4.89447C79.8102 4.81004 79.9553 4.66229 80.1625 4.45123C80.4111 4.19795 80.5768 4.11352 80.6597 4.19795C80.7011 4.24016 80.5147 4.59898 80.1003 5.27439C79.6859 5.9498 79.1887 6.85739 78.6086 7.99715C78.0285 9.13691 77.4483 10.4455 76.8682 11.923C76.2881 13.3582 75.708 14.9201 75.1279 16.6087C74.5892 18.255 74.1334 19.9646 73.7604 21.7376C73.3875 23.4683 73.1389 25.1569 73.0146 26.8032C72.8903 28.4495 72.8281 29.9692 72.8281 31.3622C72.8695 32.713 72.9317 33.8739 73.0146 34.8448C73.1389 35.7735 73.2425 36.4067 73.3253 36.7444C73.5325 37.5887 73.8226 38.4752 74.1955 39.4039C74.6099 40.2903 75.1693 40.9024 75.8737 41.2401C76.5782 41.5778 77.4483 41.6834 78.4843 41.5567C79.5616 41.4301 80.5147 41.1346 81.3434 40.6703C81.3849 40.628 81.5092 40.5436 81.7164 40.417C81.9235 40.2903 82.1307 40.1637 82.3379 40.0371C82.5865 39.8682 82.7937 39.7416 82.9595 39.6571C83.1667 39.5305 83.291 39.4883 83.3324 39.5305C83.3738 39.6149 83.3531 39.7416 83.2702 39.9104C83.1874 40.0793 83.0423 40.2692 82.8352 40.4803C82.6694 40.6914 82.4622 40.9024 82.2136 41.1135C82.0064 41.2823 81.8199 41.409 81.6542 41.4934ZM98.4984 28.3229C98.0011 30.3491 97.4003 32.4175 96.6959 34.5282C96.0329 36.6389 95.4528 38.4752 94.9555 40.0371C94.8726 40.2481 94.7898 40.4592 94.7069 40.6703C94.624 40.8813 94.5411 40.9657 94.4583 40.9235C94.334 40.8813 94.2718 40.7547 94.2718 40.5436C94.2718 40.2903 94.2718 40.0582 94.2718 39.8471C94.4376 36.6811 94.8934 33.5362 95.6392 30.4124C96.4265 27.2886 97.2967 24.1437 98.2498 20.9777C98.8299 18.9937 99.3686 16.9886 99.8658 14.9623C100.404 12.8939 100.715 10.6777 100.798 8.31375C100.798 8.01825 100.84 7.87051 100.922 7.87051C101.047 7.87051 101.15 8.01825 101.233 8.31375C101.689 9.45351 101.855 10.931 101.73 12.7461C101.606 14.5191 101.337 16.3765 100.922 18.3183C100.55 20.2601 100.114 22.1386 99.6172 23.9538C99.1199 25.769 98.747 27.2253 98.4984 28.3229ZM99.1821 14.4558C98.602 16.7353 97.9804 19.0781 97.3174 21.4843C96.6544 23.8905 95.7221 26.17 94.5204 28.3229C94.4375 28.4495 94.2925 28.6817 94.0853 29.0194C93.9196 29.3149 93.7746 29.4415 93.6502 29.3993C93.5674 29.3993 93.5259 29.2304 93.5259 28.8927C93.5259 28.555 93.5467 28.2806 93.5881 28.0696C93.6295 27.563 93.7124 26.9509 93.8367 26.2333C93.961 25.4735 94.1061 24.7136 94.2718 23.9538C94.479 23.1517 94.6655 22.3919 94.8312 21.6743C95.0384 20.9144 95.2249 20.2812 95.3906 19.7747C95.4735 19.5214 95.5978 19.0359 95.7635 18.3183C95.9707 17.5585 96.1779 16.672 96.3851 15.6589C96.5923 14.6457 96.7995 13.5482 97.0067 12.3662C97.2138 11.142 97.3796 9.93896 97.5039 8.75699C97.6696 7.57501 97.7732 6.45636 97.8147 5.40103C97.8561 4.34569 97.8147 3.43811 97.6904 2.67827C97.6075 2.29835 97.6282 2.10839 97.7525 2.10839C97.8354 2.10839 97.9183 2.1506 98.0011 2.23503C98.084 2.31946 98.1462 2.40388 98.1876 2.48831C98.6849 3.20594 99.0371 4.07131 99.2443 5.08443C99.4929 6.09755 99.6379 7.15288 99.6793 8.25043C99.7622 9.34797 99.7415 10.4455 99.6172 11.5431C99.5343 12.6406 99.3893 13.6115 99.1821 14.4558ZM93.5881 41.81C93.7124 42.6543 93.8367 43.4141 93.961 44.0895C94.1268 44.7649 94.3961 45.4193 94.769 46.0525C94.8105 46.0947 94.8312 46.158 94.8312 46.2424C94.8726 46.3691 94.8519 46.4324 94.769 46.4324C94.5619 46.4324 94.3547 46.3268 94.1475 46.1158C93.6917 45.567 93.3187 45.0393 93.0287 44.5328C92.7386 44.0262 92.4693 43.1397 92.2207 41.8733C92.1378 41.3668 92.0756 40.7547 92.0342 40.0371C91.9928 39.3194 91.9928 38.6229 92.0342 37.9475C92.0756 37.2721 92.1378 36.7233 92.2207 36.3012C92.345 35.8368 92.49 35.6047 92.6558 35.6047C92.6972 35.6047 92.7386 35.7313 92.7801 35.9846C92.8629 36.1956 92.9251 36.4489 92.9665 36.7444C93.0494 36.9977 93.0908 37.2721 93.0908 37.5676C93.1323 37.8209 93.153 37.9897 93.153 38.0741C93.2773 39.3827 93.4223 40.628 93.5881 41.81Z" fill="#9C7D9C"/>
<path d="M114.168 45.3276C115.291 45.137 116.368 44.7878 117.398 44.2797C118.459 43.7717 119.411 43.1207 120.253 42.3269C120.316 42.2951 120.441 42.184 120.628 41.9935C120.815 41.803 120.94 41.7395 121.002 41.803C121.065 41.8665 121.049 41.9617 120.955 42.0887C120.862 42.2158 120.784 42.3269 120.721 42.4221C120.097 43.343 119.27 44.1051 118.24 44.7084C117.242 45.2799 116.196 45.7403 115.104 46.0896C114.199 46.3437 113.231 46.4389 112.201 46.3754C111.171 46.2801 110.204 46.0102 109.299 45.5657C109.018 45.4387 108.846 45.3434 108.784 45.2799C108.722 45.1847 108.722 45.1212 108.784 45.0894C108.846 45.0577 108.94 45.0418 109.065 45.0418C109.221 45.0418 109.361 45.0577 109.486 45.0894C109.829 45.1529 110.22 45.2164 110.657 45.2799C111.125 45.3117 111.577 45.3434 112.014 45.3752C112.482 45.3752 112.904 45.3752 113.278 45.3752C113.653 45.3752 113.949 45.3593 114.168 45.3276ZM107.895 31.3244C107.738 32.4358 107.66 33.5313 107.66 34.6109C107.66 35.6587 107.723 36.659 107.848 37.6116C108.004 38.5324 108.222 39.358 108.503 40.0883C108.815 40.8186 109.19 41.4219 109.627 41.8982C110.126 42.4063 110.735 42.8032 111.452 43.089C112.201 43.343 112.997 43.47 113.84 43.47C114.714 43.47 115.619 43.343 116.555 43.089C117.522 42.8349 118.474 42.438 119.411 41.8982C119.598 41.7712 119.723 41.7395 119.785 41.803C119.848 41.8665 119.816 41.9458 119.691 42.0411C119.598 42.1046 119.504 42.1681 119.411 42.2316C118.599 42.8667 117.741 43.3747 116.836 43.7558C115.931 44.1368 115.01 44.375 114.074 44.4702C113.169 44.5655 112.279 44.5179 111.406 44.3273C110.563 44.1051 109.798 43.7081 109.112 43.1366C108.456 42.565 107.926 41.8823 107.52 41.0885C107.114 40.2629 106.802 39.3738 106.584 38.4213C106.397 37.4369 106.287 36.4208 106.256 35.373C106.225 34.3251 106.256 33.2931 106.35 32.277C106.475 30.6576 106.787 29.0223 107.286 27.3712C107.785 25.72 108.441 24.1959 109.252 22.7987C110.095 21.4016 111.093 20.1791 112.248 19.1312C113.403 18.0834 114.698 17.3531 116.134 16.9403C116.851 16.7498 117.585 16.6704 118.334 16.7021C119.083 16.7339 119.77 16.8768 120.394 17.1308C121.049 17.3848 121.611 17.7659 122.079 18.2739C122.547 18.7502 122.859 19.3376 123.015 20.0362C123.171 20.7983 123.109 21.5445 122.828 22.2748C122.547 22.9734 122.157 23.5926 121.658 24.1324C121.158 24.6404 120.597 25.0056 119.972 25.2278C119.348 25.4501 118.755 25.4501 118.193 25.2278C118.162 25.2278 118.131 25.1802 118.1 25.085C118.1 24.9897 118.162 24.9579 118.287 24.9897C118.662 25.0532 119.083 24.9738 119.551 24.7515C120.05 24.4975 120.487 24.1641 120.862 23.7513C121.268 23.3385 121.58 22.8464 121.798 22.2748C122.048 21.7032 122.126 21.1158 122.032 20.5125C121.939 20.068 121.736 19.6869 121.424 19.3694C121.143 19.0201 120.768 18.7502 120.3 18.5597C119.832 18.3374 119.301 18.1945 118.708 18.131C118.147 18.0675 117.554 18.0993 116.93 18.2263C115.744 18.4486 114.636 18.9884 113.606 19.8457C112.607 20.6713 111.718 21.6874 110.937 22.894C110.157 24.1006 109.502 25.4501 108.971 26.9425C108.441 28.4032 108.082 29.8638 107.895 31.3244ZM111.593 47.0899C111.936 47.1216 112.279 47.1375 112.623 47.1375C112.997 47.1375 113.184 47.1851 113.184 47.2804C113.184 47.3121 113.122 47.328 112.997 47.328C112.872 47.3598 112.732 47.3756 112.576 47.3756C112.451 47.3756 112.311 47.3756 112.155 47.3756C111.999 47.3756 111.905 47.3756 111.874 47.3756C110.906 47.3756 109.954 47.2327 109.018 46.947C108.082 46.6612 107.208 46.2643 106.397 45.7562C105.616 45.2164 104.914 44.5655 104.29 43.8034C103.666 43.0413 103.198 42.1681 102.886 41.1838C102.261 39.2468 101.902 37.3575 101.809 35.5158C101.715 33.6742 101.793 31.8642 102.043 30.0861C102.168 29.07 102.402 27.9269 102.745 26.6567C103.12 25.3549 103.603 24.0371 104.196 22.7035C104.82 21.3698 105.585 20.0521 106.49 18.7502C107.426 17.4483 108.534 16.2576 109.814 15.178C111.156 14.0349 112.638 13.2728 114.261 12.8918C115.915 12.5107 117.491 12.4472 118.989 12.7012C120.487 12.9553 121.814 13.4951 122.968 14.3207C124.123 15.1145 124.888 16.1306 125.262 17.3689C125.293 17.4325 125.325 17.5753 125.356 17.7976C125.387 17.9881 125.372 18.1151 125.309 18.1787C125.278 18.2104 125.231 18.131 125.169 17.9405C125.106 17.75 125.044 17.623 124.981 17.5595C123.671 15.7495 122.188 14.6064 120.534 14.1301C118.88 13.6221 117.242 13.5745 115.619 13.9872C113.996 14.3683 112.467 15.0986 111.031 16.1782C109.595 17.2261 108.456 18.4009 107.614 19.7028C106.147 21.9573 105.023 24.3546 104.243 26.8949C103.494 29.4351 103.151 32.0548 103.213 34.7538C103.244 35.9921 103.369 37.294 103.588 38.6594C103.837 40.0248 104.306 41.3267 104.992 42.565C105.679 43.8352 106.615 44.8989 107.801 45.7562C109.018 46.5818 110.282 47.0263 111.593 47.0899ZM104.852 29.1811C105.101 27.4982 105.491 25.8629 106.022 24.2752C106.584 22.6876 107.302 21.2428 108.175 19.9409C109.08 18.6073 110.188 17.4642 111.499 16.5116C112.81 15.559 114.355 14.8922 116.134 14.5112C116.758 14.3842 117.46 14.3365 118.24 14.3683C119.02 14.3683 119.801 14.5112 120.581 14.7969C121.361 15.051 122.079 15.4479 122.734 15.9877C123.421 16.5275 123.983 17.2737 124.42 18.2263C124.825 19.1471 124.966 20.0521 124.841 20.9412C124.716 21.8303 124.451 22.64 124.045 23.3703C123.639 24.0689 123.14 24.6563 122.547 25.1326C121.954 25.6089 121.377 25.8788 120.815 25.9423C120.472 26.0058 120.284 26.0058 120.253 25.9423C120.222 25.847 120.394 25.7359 120.768 25.6089C121.361 25.4184 121.954 24.9421 122.547 24.18C123.171 23.3862 123.546 22.3859 123.671 21.1793C123.733 20.576 123.655 19.9886 123.437 19.417C123.218 18.8137 122.906 18.2898 122.5 17.8452C122.095 17.4007 121.611 17.0197 121.049 16.7021C120.487 16.3846 119.894 16.1782 119.27 16.0829C117.928 15.8924 116.695 15.9877 115.572 16.3687C114.448 16.7498 113.465 17.2419 112.623 17.8452C111.811 18.4168 111.14 18.9884 110.61 19.5599C110.11 20.1315 109.798 20.5125 109.673 20.703C108.706 21.9414 107.863 23.2909 107.146 24.7515C106.428 26.1804 105.835 27.6887 105.367 29.2764C105.367 29.3081 105.335 29.4193 105.273 29.6098C105.242 29.8003 105.195 30.0067 105.133 30.229C105.101 30.4195 105.055 30.61 104.992 30.8005C104.93 30.9593 104.883 31.0387 104.852 31.0387C104.789 31.0387 104.758 30.9434 104.758 30.7529C104.758 30.5624 104.758 30.3718 104.758 30.1813C104.758 29.9591 104.774 29.7527 104.805 29.5621C104.836 29.3716 104.852 29.2446 104.852 29.1811Z" fill="#1B9A7F"/>
<path d="M142.828 30.5624C142.579 31.8325 142.157 33.1026 141.564 34.3727C140.971 35.6429 140.41 36.8336 139.879 37.945C139.848 38.0085 139.77 38.1196 139.645 38.2784C139.551 38.4371 139.473 38.5165 139.411 38.5165C139.317 38.4848 139.27 38.3895 139.27 38.2307C139.27 38.0402 139.27 37.9132 139.27 37.8497C139.302 37.5639 139.348 37.2305 139.411 36.8495C139.504 36.4367 139.583 36.0239 139.645 35.6111C139.707 35.1666 139.77 34.7538 139.832 34.3727C139.926 33.9599 140.019 33.5948 140.113 33.2773C140.394 32.1976 140.628 31.2768 140.815 30.5147C141.003 29.7209 141.143 29.0065 141.237 28.3714C141.33 27.7363 141.377 27.133 141.377 26.5615C141.408 25.9899 141.377 25.3707 141.283 24.7039C141.252 24.4499 141.268 24.2911 141.33 24.2276C141.393 24.1959 141.471 24.2276 141.564 24.3229C141.658 24.4181 141.736 24.5134 141.798 24.6087C142.329 25.466 142.688 26.4186 142.875 27.4664C143.062 28.4825 143.047 29.5145 142.828 30.5624ZM143.952 27.3712C144.357 27.9745 144.56 28.7683 144.56 29.7527C144.56 30.737 144.467 31.7531 144.279 32.801C144.092 33.8171 143.858 34.8014 143.577 35.754C143.296 36.7066 143.094 37.4687 142.969 38.0402C142.719 39.1516 142.376 40.2629 141.939 41.3743C141.502 42.4857 141.127 43.47 140.815 44.3273C140.784 44.4226 140.737 44.5337 140.675 44.6607C140.612 44.756 140.55 44.8036 140.488 44.8036C140.425 44.8036 140.394 44.7401 140.394 44.6131C140.394 44.4861 140.394 44.375 140.394 44.2797C140.3 42.5333 140.488 40.8345 140.956 39.1833C141.424 37.5004 141.923 35.8016 142.454 34.087C142.766 33.0391 143.062 31.9754 143.343 30.8958C143.624 29.7844 143.749 28.5778 143.718 27.2759C143.718 27.1489 143.733 27.0854 143.764 27.0854L143.952 27.3712ZM139.551 26.5615C137.648 27.3553 136.025 28.4984 134.683 29.9908C133.372 31.4515 132.358 33.1026 131.64 34.9443C131.328 35.7699 131.094 36.5161 130.938 37.1829C130.782 37.8179 130.657 38.5165 130.563 39.2786C130.532 39.4374 130.579 39.5961 130.704 39.7549C130.828 39.9137 130.953 39.9137 131.078 39.7549C131.64 39.0563 132.358 38.1672 133.232 37.0876C134.105 36.008 134.979 34.8649 135.853 33.6583C136.727 32.4517 137.507 31.2292 138.194 29.9908C138.912 28.7524 139.364 27.6093 139.551 26.5615ZM136.415 42.7079C135.947 43.3747 135.494 43.9939 135.057 44.5655C134.62 45.137 134.137 45.6451 133.606 46.0896C133.075 46.5024 132.482 46.8358 131.827 47.0899C131.172 47.3439 130.423 47.4868 129.58 47.5185C128.176 47.582 127.099 47.2169 126.35 46.423C125.632 45.6292 125.133 44.6607 124.852 43.5176C124.571 42.3745 124.462 41.1997 124.524 39.993C124.618 38.7547 124.79 37.7386 125.039 36.9447C125.382 35.8334 125.788 34.7855 126.256 33.8012C126.756 32.7851 127.271 31.8801 127.801 31.0863C128.363 30.2607 128.925 29.5621 129.486 28.9906C130.079 28.3873 130.657 27.9269 131.219 27.6093C131.25 27.6093 131.312 27.5776 131.406 27.5141C131.531 27.4506 131.593 27.4664 131.593 27.5617C131.624 27.5617 131.609 27.6093 131.546 27.7046C131.484 27.7998 131.421 27.8792 131.359 27.9427C129.736 29.6574 128.441 31.5943 127.473 33.7535C126.537 35.9128 126.007 38.1355 125.882 40.4217C125.851 40.9933 125.866 41.6124 125.929 42.2793C126.022 42.9461 126.178 43.5811 126.397 44.1844C126.646 44.756 126.99 45.2482 127.427 45.661C127.864 46.042 128.457 46.2325 129.206 46.2325C129.799 46.2325 130.345 46.1373 130.844 45.9467C131.343 45.7245 131.811 45.4546 132.248 45.137C132.685 44.7878 133.075 44.4226 133.419 44.0416C133.793 43.6288 134.121 43.2477 134.402 42.8984C135.026 42.1046 135.603 41.279 136.134 40.4217C136.134 39.7866 136.165 39.1675 136.228 38.5641C136.321 37.9608 136.446 37.3575 136.602 36.7542C136.696 36.3097 136.774 35.9604 136.836 35.7064C136.93 35.4206 137.008 35.1666 137.07 34.9443C137.164 34.6903 137.242 34.4362 137.304 34.1822C137.398 33.8964 137.523 33.5313 137.679 33.0867C137.179 33.9758 136.68 34.8173 136.181 35.6111C135.713 36.3732 135.198 37.1194 134.636 37.8497C134.105 38.5483 133.544 39.2468 132.951 39.9454C132.389 40.6122 131.765 41.2949 131.078 41.9935C130.548 42.5333 130.111 42.7079 129.767 42.5174C129.424 42.3269 129.221 41.8823 129.159 41.1838C129.096 40.1042 129.143 39.0563 129.299 38.0402C129.486 37.0241 129.799 35.9604 130.235 34.849C130.641 33.8329 131.141 32.8486 131.733 31.896C132.358 30.9434 133.06 30.0861 133.84 29.324C134.652 28.5302 135.541 27.8633 136.508 27.3235C137.476 26.752 138.506 26.371 139.598 26.1804C139.661 25.8312 139.707 25.5295 139.739 25.2755C139.801 25.0214 139.848 24.7674 139.879 24.5134C139.941 24.1641 139.973 23.9895 139.973 23.9895C140.035 23.9577 140.097 23.9895 140.16 24.0847C140.253 24.18 140.332 24.307 140.394 24.4658C140.768 25.5136 140.893 26.5615 140.768 27.6093C140.644 28.6572 140.41 29.7209 140.066 30.8005C139.754 31.8801 139.38 32.9915 138.943 34.1346C138.506 35.2459 138.147 36.3732 137.866 37.5163C137.492 39.1357 137.382 40.8186 137.538 42.565C137.726 44.2797 138.397 45.8356 139.551 47.2327C139.645 47.3598 139.692 47.4233 139.692 47.4233C139.661 47.455 139.567 47.4233 139.411 47.328C138.506 46.7564 137.819 46.0738 137.351 45.2799C136.914 44.4543 136.602 43.597 136.415 42.7079ZM138.053 25.847C138.116 25.9105 138.1 25.9582 138.006 25.9899C137.944 26.0217 137.788 26.0693 137.538 26.1328C137.133 26.2598 136.633 26.498 136.04 26.8473C135.479 27.1965 134.87 27.6411 134.215 28.1809C133.59 28.7207 132.966 29.3557 132.342 30.0861C131.718 30.7846 131.172 31.5467 130.704 32.3723C130.235 33.2296 129.83 34.0711 129.486 34.8967C129.174 35.7222 128.909 36.4843 128.691 37.1829C128.503 37.8497 128.363 38.4371 128.269 38.9452C128.176 39.4215 128.129 39.7549 128.129 39.9454C128.129 40.4217 128.129 40.9298 128.129 41.4696C128.129 41.9776 128.191 42.438 128.316 42.8508C128.441 43.2636 128.659 43.5811 128.971 43.8034C129.284 44.0257 129.752 44.0892 130.376 43.9939C130.407 43.9939 130.485 43.978 130.61 43.9463C130.735 43.8828 130.86 43.8352 130.984 43.8034C131.109 43.7399 131.219 43.6923 131.312 43.6605C131.437 43.6288 131.515 43.6129 131.546 43.6129C131.577 43.6764 131.546 43.7558 131.453 43.851C131.39 43.9463 131.297 44.0574 131.172 44.1844C131.047 44.2797 130.922 44.375 130.797 44.4702C130.704 44.5655 130.641 44.629 130.61 44.6607C129.83 45.137 129.174 45.2799 128.644 45.0894C128.113 44.8989 127.692 44.5496 127.38 44.0416C127.099 43.5018 126.896 42.8826 126.771 42.184C126.678 41.4537 126.646 40.8027 126.678 40.2312C126.74 39.1198 126.912 38.0243 127.193 36.9447C127.473 35.8334 127.832 34.722 128.269 33.6107C128.613 32.7533 129.128 31.8801 129.814 30.991C130.501 30.0702 131.265 29.2287 132.108 28.4667C132.982 27.7046 133.887 27.0854 134.823 26.6091C135.759 26.1011 136.664 25.8312 137.538 25.7994C137.85 25.7994 138.022 25.8153 138.053 25.847ZM140.815 47.2327C140.878 47.328 140.893 47.3915 140.862 47.4233C140.768 47.4233 140.644 47.3915 140.488 47.328C140.394 47.2645 140.144 47.074 139.739 46.7564C139.333 46.4389 139.036 45.9309 138.849 45.2323C138.787 44.9783 138.724 44.6607 138.662 44.2797C138.631 43.8669 138.615 43.4859 138.615 43.1366C138.615 42.7873 138.631 42.4857 138.662 42.2316C138.724 41.9776 138.802 41.8506 138.896 41.8506C138.99 41.8506 139.083 42.0411 139.177 42.4221C139.302 42.8032 139.38 43.0413 139.411 43.1366C139.504 43.5811 139.583 43.978 139.645 44.3273C139.739 44.6449 139.832 44.9465 139.926 45.2323C140.051 45.5816 140.207 45.9785 140.394 46.423C140.612 46.8676 140.753 47.1375 140.815 47.2327Z" fill="#1B9A7F"/>
<path d="M151.277 31.4673C151.027 32.5469 150.668 33.69 150.2 34.8967C149.763 36.0715 149.264 37.167 148.702 38.1831C148.702 38.2466 148.655 38.3577 148.562 38.5165C148.499 38.6435 148.406 38.707 148.281 38.707C148.218 38.707 148.172 38.6118 148.14 38.4213C148.14 38.2307 148.156 38.1037 148.187 38.0402C148.187 37.5322 148.25 36.8654 148.375 36.0398C148.499 35.1824 148.655 34.4839 148.843 33.9441C148.905 33.7536 148.999 33.2931 149.124 32.5628C149.28 31.8325 149.404 31.0228 149.498 30.1337C149.623 29.2129 149.685 28.3396 149.685 27.5141C149.716 26.6567 149.623 26.0217 149.404 25.6089V25.4184C149.529 25.3231 149.67 25.3549 149.826 25.5136C150.231 25.8629 150.544 26.2916 150.762 26.7996C151.012 27.3077 151.183 27.8475 151.277 28.419C151.402 28.9588 151.449 29.4986 151.417 30.0384C151.417 30.5782 151.371 31.0545 151.277 31.4673ZM153.103 31.2768C153.446 30.8323 153.774 30.5147 154.086 30.3242C154.398 30.1337 154.71 29.9749 155.022 29.8479C155.053 29.8479 155.131 29.832 155.256 29.8003C155.381 29.7685 155.475 29.8003 155.537 29.8955C155.599 29.9908 155.584 30.1019 155.49 30.229C155.396 30.356 155.318 30.4512 155.256 30.5147C155.038 30.737 154.788 30.991 154.507 31.2768C154.257 31.5308 154.023 31.7849 153.805 32.0389C153.493 32.3882 153.243 32.801 153.056 33.2773C152.869 33.7218 152.728 34.1822 152.635 34.6585C153.165 34.087 153.664 33.5472 154.133 33.0391C154.632 32.5311 155.162 32.0548 155.724 31.6102C156.442 31.0704 157.066 30.3718 157.597 29.5145C158.127 28.6572 158.502 27.4029 158.72 25.7518C158.783 25.593 158.861 25.4977 158.954 25.466C159.048 25.4342 159.095 25.5454 159.095 25.7994C159.188 27.6411 159.001 29.1017 158.533 30.1813C158.065 31.2609 157.363 32.1659 156.426 32.8962C155.927 33.2773 155.428 33.69 154.928 34.1346C154.429 34.5791 153.945 35.0713 153.477 35.6111C153.04 36.1509 152.635 36.786 152.26 37.5163C151.885 38.2466 151.558 39.0881 151.277 40.0407C151.058 40.771 150.84 41.4696 150.622 42.1364C150.403 42.7714 150.169 43.3906 149.919 43.9939C149.857 44.2162 149.763 44.3273 149.638 44.3273C149.545 44.2956 149.498 44.1368 149.498 43.851C149.342 42.3269 149.436 40.8186 149.779 39.3262C150.153 37.8021 150.59 36.2303 151.09 34.6109C151.308 33.8171 151.558 33.0232 151.839 32.2294C152.151 31.4356 152.291 30.5306 152.26 29.5145C152.26 29.1652 152.4 28.8001 152.681 28.419C152.962 28.038 153.306 27.6887 153.711 27.3712C154.117 27.0219 154.538 26.7361 154.975 26.5138C155.412 26.2598 155.787 26.0852 156.099 25.9899C156.38 25.8947 156.52 25.9105 156.52 26.0375C156.52 26.1646 156.426 26.3233 156.239 26.5138C155.584 27.1172 154.913 27.8316 154.226 28.6572C153.571 29.4828 153.196 30.356 153.103 31.2768ZM149.03 47.2804C148.999 47.3121 148.967 47.328 148.936 47.328C148.936 47.2962 148.858 47.2327 148.702 47.1375C147.766 46.4389 147.033 45.6768 146.502 44.8513C145.971 44.0257 145.581 43.1842 145.332 42.3269C145.113 41.4378 145.02 40.5646 145.051 39.7073C145.082 38.8182 145.191 37.9608 145.378 37.1353C145.628 36.0239 145.925 34.9284 146.268 33.8488C146.642 32.7374 146.986 31.6737 147.298 30.6576C147.61 29.6098 147.844 28.5937 148 27.6093C148.156 26.5932 148.156 25.6248 148 24.7039C148 24.6404 148.047 24.5928 148.14 24.561C148.172 24.561 148.203 24.5928 148.234 24.6563C148.265 24.688 148.296 24.7198 148.328 24.7515C148.921 25.7676 149.217 26.8155 149.217 27.8951C149.217 28.943 149.077 30.0226 148.796 31.1339C148.515 32.2135 148.156 33.3249 147.719 34.468C147.313 35.5794 146.986 36.7066 146.736 37.8497C146.424 39.3103 146.393 40.8662 146.642 42.5174C146.923 44.1686 147.657 45.6451 148.843 46.947C148.905 47.0422 148.967 47.1057 149.03 47.1375C149.092 47.1692 149.092 47.2169 149.03 47.2804ZM150.434 47.328C150.372 47.328 150.309 47.3121 150.247 47.2804L150.06 47.1851C149.623 46.8993 149.233 46.5977 148.889 46.2801C148.546 45.9309 148.25 45.4387 148 44.8036C147.906 44.5814 147.828 44.2956 147.766 43.9463C147.704 43.5653 147.657 43.216 147.625 42.8984C147.625 42.5809 147.641 42.311 147.672 42.0887C147.735 41.8665 147.828 41.7712 147.953 41.803C148.047 41.803 148.14 41.93 148.234 42.184C148.359 42.438 148.453 42.692 148.515 42.9461C148.577 43.2954 148.64 43.6288 148.702 43.9463C148.796 44.2638 148.905 44.5496 149.03 44.8036C149.373 45.5975 149.826 46.3595 150.387 47.0899C150.45 47.2486 150.465 47.328 150.434 47.328ZM158.065 25.9423C158.065 26.6091 157.878 27.1965 157.503 27.7046C157.129 28.2126 156.676 28.6413 156.146 28.9906C156.052 29.0541 155.989 29.0541 155.958 28.9906C155.927 28.8953 155.911 28.8318 155.911 28.8001C155.911 28.6095 155.989 28.3873 156.146 28.1333C156.302 27.8475 156.473 27.5617 156.66 27.2759C156.879 26.9584 157.082 26.6409 157.269 26.3233C157.456 26.0058 157.581 25.72 157.644 25.466C157.737 25.3072 157.831 25.3072 157.924 25.466C158.018 25.6248 158.065 25.7835 158.065 25.9423Z" fill="#1B9A7F"/>
<path d="M172.392 27.8951C172.641 28.2126 172.828 28.6095 172.953 29.0858C173.109 29.5621 173.172 30.0861 173.141 30.6576C173.109 31.1974 172.985 31.769 172.766 32.3723C172.548 32.9756 172.204 33.563 171.736 34.1346C170.831 35.2142 169.832 36.0556 168.74 36.659C167.679 37.2305 166.712 37.5163 165.838 37.5163C165.307 37.5163 165.307 37.421 165.838 37.2305C166.119 37.1353 166.446 36.9924 166.821 36.8018C167.226 36.5796 167.648 36.3256 168.085 36.0398C168.522 35.7222 168.959 35.3571 169.396 34.9443C169.864 34.5315 170.285 34.0552 170.659 33.5154C171.284 32.6263 171.643 31.769 171.736 30.9434C171.861 30.0861 171.705 29.4351 171.268 28.9906C170.894 28.6095 170.457 28.4032 169.957 28.3714C169.458 28.3079 168.709 28.5778 167.71 29.1811C166.805 29.7209 165.994 30.3877 165.276 31.1815C164.558 31.9754 163.887 32.8168 163.263 33.7059C162.92 34.1505 162.686 34.3727 162.561 34.3727C162.467 34.3727 162.514 34.087 162.701 33.5154C163.076 32.404 163.591 31.3721 164.246 30.4195C164.933 29.4669 165.744 28.6572 166.68 27.9904C167.367 27.5141 167.991 27.1807 168.553 26.9901C169.146 26.7996 169.676 26.7202 170.145 26.752C170.644 26.7837 171.081 26.9108 171.455 27.133C171.83 27.3235 172.142 27.5776 172.392 27.8951ZM174.919 31.2292C174.795 31.9913 174.592 32.6422 174.311 33.182C174.061 33.69 173.765 34.1346 173.421 34.5156C173.109 34.8649 172.782 35.1507 172.438 35.373C172.126 35.5952 171.845 35.8016 171.596 35.9921C171.471 36.0874 171.377 36.1033 171.315 36.0398C171.252 35.9763 171.299 35.8651 171.455 35.7064C172.017 35.2301 172.579 34.595 173.141 33.8012C173.734 32.9756 174.046 32.0706 174.077 31.0863C174.077 29.4034 173.671 28.1174 172.86 27.2283C172.048 26.3392 171.034 25.9582 169.817 26.0852C168.6 26.1804 167.336 26.6567 166.025 27.5141C165.182 28.0539 164.433 28.6889 163.778 29.4193C163.154 30.1178 162.608 30.8799 162.139 31.7055C161.671 32.4993 161.281 33.3249 160.969 34.1822C160.688 35.0395 160.485 35.8969 160.361 36.7542C160.236 37.5798 160.111 38.4689 159.986 39.4215C159.892 40.3741 159.892 41.3108 159.986 42.2316C160.111 43.1525 160.407 44.0416 160.875 44.8989C161.344 45.7245 162.077 46.4389 163.076 47.0422C163.232 47.1375 163.388 47.201 163.544 47.2327C163.731 47.2645 163.825 47.2962 163.825 47.328C163.825 47.3915 163.747 47.4233 163.591 47.4233C163.435 47.455 163.263 47.4391 163.076 47.3756C162.295 47.2169 161.624 46.8993 161.063 46.423C160.532 45.915 160.095 45.3434 159.752 44.7084C159.409 44.0733 159.143 43.4065 158.956 42.7079C158.769 42.0094 158.66 41.3743 158.628 40.8027C158.441 38.2942 158.784 35.8175 159.658 33.3725C159.846 32.8645 160.08 32.2929 160.361 31.6578C160.673 31.0228 161.047 30.3877 161.484 29.7527C161.921 29.0858 162.436 28.4508 163.029 27.8475C163.622 27.2124 164.293 26.6567 165.042 26.1804C165.76 25.7359 166.509 25.4025 167.289 25.1802C168.069 24.9579 168.849 24.8627 169.63 24.8944C170.41 24.8944 171.143 25.0373 171.83 25.3231C172.516 25.5771 173.125 25.974 173.656 26.5138C174.124 27.0219 174.483 27.6728 174.732 28.4667C175.013 29.2605 175.076 30.1813 174.919 31.2292ZM170.659 29.5145C171.034 29.9591 171.081 30.6576 170.8 31.6102C170.519 32.5311 169.864 33.4678 168.834 34.4204C168.272 34.9602 167.726 35.4047 167.195 35.754C166.665 36.0715 165.994 36.3573 165.182 36.6113C164.839 37.8179 164.621 39.0087 164.527 40.1836C164.433 41.3584 164.465 42.311 164.621 43.0413C164.652 43.3271 164.745 43.6129 164.901 43.8987C165.089 44.1527 165.338 44.3591 165.65 44.5179C165.994 44.6449 166.431 44.6925 166.961 44.6607C167.492 44.629 168.147 44.4543 168.927 44.1368C169.146 44.0416 169.271 44.0257 169.302 44.0892C169.364 44.1209 169.271 44.2162 169.021 44.375C168.459 44.8195 167.866 45.137 167.242 45.3276C166.618 45.4863 166.025 45.5339 165.463 45.4704C164.933 45.4069 164.464 45.2164 164.059 44.8989C163.684 44.5814 163.435 44.1527 163.31 43.6129C163.06 42.5015 162.951 41.3425 162.982 40.1359C163.013 38.9293 163.185 37.7386 163.497 36.5637C163.84 35.3888 164.308 34.2934 164.901 33.2773C165.526 32.2294 166.29 31.3403 167.195 30.61C168.881 29.2446 170.035 28.8794 170.659 29.5145ZM170.191 44.7084C169.973 45.0259 169.692 45.3434 169.349 45.661C169.037 45.9467 168.662 46.2166 168.225 46.4707C167.819 46.6929 167.383 46.8835 166.914 47.0422C166.477 47.201 166.025 47.2804 165.557 47.2804C164.745 47.2804 163.981 47.1057 163.263 46.7564C162.576 46.3754 162.046 45.6292 161.671 44.5179C161.609 44.3908 161.578 44.2797 161.578 44.1844C161.578 44.0574 161.609 43.9939 161.671 43.9939C161.796 43.9304 161.921 43.978 162.046 44.1368C162.171 44.2638 162.295 44.4067 162.42 44.5655C162.764 44.9783 163.201 45.3434 163.731 45.661C164.293 45.9785 164.823 46.1373 165.323 46.1373C166.259 46.1373 167.07 45.9944 167.757 45.7086C168.444 45.4228 169.099 45.0418 169.723 44.5655C169.879 44.4702 170.051 44.375 170.238 44.2797C170.457 44.1844 170.441 44.3273 170.191 44.7084ZM169.536 30.8005C169.411 30.5465 168.959 30.7529 168.178 31.4197C167.461 31.9913 166.883 32.6581 166.446 33.4201C166.041 34.1505 165.682 34.9602 165.37 35.8493C165.963 35.5635 166.509 35.2459 167.008 34.8967C167.507 34.5156 167.975 34.1505 168.412 33.8012C168.881 33.3884 169.224 32.8486 169.442 32.1818C169.661 31.515 169.692 31.0545 169.536 30.8005Z" fill="#1B9A7F"/>
<line x1="59.3867" y1="0.525391" x2="59.3867" y2="47.5254" stroke="#1B9A7F"/>
</svg>
