<svg width="100" height="100" viewBox="0 0 100 100" fill="none" xmlns="http://www.w3.org/2000/svg">
<path d="M50 0C63.2608 0 75.9785 5.26784 85.3553 14.6447C94.7322 24.0215 100 36.7392 100 50C100 63.2608 94.7322 75.9785 85.3553 85.3553C75.9785 94.7322 63.2608 100 50 100C36.7392 100 24.0215 94.7322 14.6447 85.3553C5.26784 75.9785 0 63.2608 0 50C0 36.7392 5.26784 24.0215 14.6447 14.6447C24.0215 5.26784 36.7392 0 50 0ZM50 92.8571C61.3664 92.8571 72.2673 88.3418 80.3046 80.3046C88.3418 72.2673 92.8571 61.3664 92.8571 50C92.8571 38.6336 88.3418 27.7327 80.3046 19.6954C72.2673 11.6581 61.3664 7.14286 50 7.14286C38.6336 7.14286 27.7327 11.6581 19.6954 19.6954C11.6581 27.7327 7.14286 38.6336 7.14286 50C7.14286 61.3664 11.6581 72.2673 19.6954 80.3046C27.7327 88.3418 38.6336 92.8571 50 92.8571ZM44.6429 65.2214L67.4786 50L44.6429 34.7786V65.2214ZM45.8286 26.9786L73.6714 45.5429C74.4051 46.0321 75.0067 46.6949 75.4228 47.4724C75.8389 48.2499 76.0566 49.1181 76.0566 50C76.0566 50.8819 75.8389 51.7501 75.4228 52.5276C75.0067 53.3051 74.4051 53.9679 73.6714 54.4571L45.8286 73.0214C45.0218 73.5592 44.0842 73.868 43.1157 73.9148C42.1473 73.9616 41.1843 73.7447 40.3294 73.2872C39.4745 72.8297 38.7599 72.1488 38.2616 71.317C37.7633 70.4853 37.5001 69.5339 37.5 68.5643V31.4286C37.5001 30.459 37.7633 29.5076 38.2616 28.6758C38.7599 27.8441 39.4745 27.1632 40.3294 26.7057C41.1843 26.2482 42.1473 26.0313 43.1157 26.0781C44.0842 26.1249 45.0218 26.4336 45.8286 26.9714V26.9786Z" fill="white"/>
</svg>
