<svg width="18" height="19" viewBox="0 0 18 19" fill="none" xmlns="http://www.w3.org/2000/svg">
<path d="M17 3.00729C17 3.00729 15.5324 3.87088 14.7164 4.11575C14.2784 3.61405 13.6962 3.25846 13.0488 3.09707C12.4013 2.93568 11.7196 2.97627 11.0961 3.21337C10.4725 3.45046 9.93705 3.87262 9.56217 4.42273C9.18729 4.97285 8.99105 5.62438 9 6.28922V7.01371C7.72192 7.04672 6.45547 6.76435 5.31346 6.19174C4.17145 5.61913 3.18932 4.77405 2.45455 3.73177C2.45455 3.73177 -0.454545 10.2522 6.09091 13.1501C4.59311 14.1629 2.80884 14.6708 1 14.5991C7.54545 18.2216 15.5455 14.5991 15.5455 6.26749C15.5455 6.06608 15.5251 5.86467 15.4873 5.66616C16.2291 4.93732 17 3.00729 17 3.00729Z" stroke="white" stroke-linecap="round" stroke-linejoin="round"/>
</svg>
