<svg width="30" height="30" viewBox="0 0 30 30" fill="none" xmlns="http://www.w3.org/2000/svg">
<path fill-rule="evenodd" clip-rule="evenodd" d="M13.1359 6.5944C13.498 6.39324 13.9546 6.52369 14.1558 6.88578L15.6558 9.58578C15.8569 9.94787 15.7265 10.4045 15.3644 10.6056C15.0023 10.8068 14.5457 10.6763 14.3445 10.3142L12.8445 7.61425C12.6434 7.25216 12.7738 6.79556 13.1359 6.5944Z" fill="#6984A5"/>
<path fill-rule="evenodd" clip-rule="evenodd" d="M16.8644 6.5944C17.2265 6.79556 17.3569 7.25216 17.1558 7.61425L9.65575 21.1142C9.45459 21.4763 8.99799 21.6068 8.6359 21.4056C8.27382 21.2045 8.14336 20.7479 8.34452 20.3858L15.8445 6.88578C16.0457 6.52369 16.5023 6.39324 16.8644 6.5944Z" fill="#6984A5"/>
<path fill-rule="evenodd" clip-rule="evenodd" d="M16.3533 12.3844C16.7154 12.1833 17.172 12.3138 17.3731 12.6759L19.775 17.0001H21.75C22.1642 17.0001 22.5 17.3358 22.5 17.7501C22.5 18.1643 22.1642 18.5001 21.75 18.5001H20.6082L21.6556 20.3859C21.8568 20.748 21.7263 21.2046 21.3642 21.4057C21.0021 21.6068 20.5455 21.4763 20.3444 21.1142L16.0619 13.4042C15.8607 13.0421 15.9912 12.5855 16.3533 12.3844ZM7.5 17.7501C7.5 17.3358 7.83579 17.0001 8.25 17.0001H15.75C16.1642 17.0001 16.5 17.3358 16.5 17.7501C16.5 18.1643 16.1642 18.5001 15.75 18.5001H8.25C7.83579 18.5001 7.5 18.1643 7.5 17.7501Z" fill="#6984A5"/>
<circle cx="15" cy="15" r="14.5" stroke="#F1A350"/>
</svg>
