<svg width="23" height="20" viewBox="0 0 23 20" fill="none" xmlns="http://www.w3.org/2000/svg">
<path fill-rule="evenodd" clip-rule="evenodd" d="M0 10C0 10.3788 0.150484 10.7421 0.418344 11.01C0.686205 11.2778 1.0495 11.4283 1.42831 11.4283H17.9768L11.8436 17.5586C11.5754 17.8268 11.4247 18.1906 11.4247 18.5699C11.4247 18.9492 11.5754 19.3129 11.8436 19.5811C12.1118 19.8493 12.4755 20 12.8548 20C13.2341 20 13.5979 19.8493 13.8661 19.5811L22.4359 11.0112C22.569 10.8786 22.6745 10.7209 22.7465 10.5474C22.8185 10.3739 22.8556 10.1879 22.8556 10C22.8556 9.81213 22.8185 9.6261 22.7465 9.45257C22.6745 9.27905 22.569 9.12143 22.4359 8.98875L13.8661 0.418872C13.5979 0.150673 13.2341 -7.47672e-09 12.8548 0C12.4755 7.47673e-09 12.1118 0.150673 11.8436 0.418872C11.5754 0.687071 11.4247 1.05083 11.4247 1.43012C11.4247 1.80941 11.5754 2.17317 11.8436 2.44136L17.9768 8.57169H1.42831C1.0495 8.57169 0.686205 8.72217 0.418344 8.99003C0.150484 9.25789 0 9.62119 0 10Z" fill="#141421"/>
</svg>
