<svg width="21" height="18" viewBox="0 0 21 18" fill="none" xmlns="http://www.w3.org/2000/svg">
<path fill-rule="evenodd" clip-rule="evenodd" d="M20.002 8.75158C20.002 8.42006 19.8703 8.10212 19.6358 7.8677C19.4014 7.63328 19.0835 7.50158 18.752 7.50158H4.26945L9.63695 2.13658C9.87167 1.90186 10.0035 1.58352 10.0035 1.25158C10.0035 0.91964 9.87167 0.601296 9.63695 0.366579C9.40224 0.131863 9.08389 0 8.75195 0C8.42001 0 8.10167 0.131863 7.86695 0.366579L0.366953 7.86658C0.250545 7.98269 0.158189 8.12063 0.0951724 8.2725C0.0321563 8.42436 -0.000280857 8.58716 -0.000280857 8.75158C-0.000280857 8.916 0.0321563 9.0788 0.0951724 9.23066C0.158189 9.38253 0.250545 9.52047 0.366953 9.63658L7.86695 17.1366C8.10167 17.3713 8.42001 17.5032 8.75195 17.5032C9.08389 17.5032 9.40224 17.3713 9.63695 17.1366C9.87167 16.9019 10.0035 16.5835 10.0035 16.2516C10.0035 15.9196 9.87167 15.6013 9.63695 15.3666L4.26945 10.0016H18.752C19.0835 10.0016 19.4014 9.86988 19.6358 9.63546C19.8703 9.40104 20.002 9.0831 20.002 8.75158Z" fill="#6984A5"/>
</svg>
