<svg width="31" height="50" viewBox="0 0 31 50" fill="none" xmlns="http://www.w3.org/2000/svg">
<path d="M10.4458 45.4076C9.96976 45.3749 9.49586 45.3165 9.02615 45.2327L6.53672 44.8747L4.99914 44.6185C4.50288 44.529 4.00255 44.4313 3.51036 44.3215C3.01817 44.2117 2.50564 44.0856 2.07447 43.9717L1.48872 43.813V34.193L4.21001 34.4167L6.20724 34.5347L8.3021 34.6282L10.4254 34.6933L12.4877 34.734H14.4077C14.9894 34.734 15.4978 34.734 15.9371 34.677C16.3475 34.6432 16.7552 34.582 17.1575 34.494C17.4511 34.4312 17.7365 34.3343 18.0076 34.2052C18.1965 34.1176 18.3697 33.9994 18.5201 33.8554C18.6345 33.7404 18.7221 33.6014 18.7764 33.4486C18.8458 33.2458 18.8789 33.0324 18.874 32.8181V32.1957C18.8923 31.9852 18.8571 31.7734 18.7718 31.58C18.6864 31.3866 18.5537 31.2178 18.3859 31.0893C18.1844 30.9449 17.9604 30.8349 17.7229 30.7639C17.4584 30.6882 17.1844 30.6512 16.9093 30.6541H14.1026C12.2047 30.6811 10.3124 30.4415 8.48108 29.9422C6.93375 29.5263 5.49385 28.7827 4.25882 27.762C3.0474 26.7031 2.14385 25.3373 1.6433 23.8082C1.04467 21.9679 0.760023 20.04 0.801284 18.1053V16.3602C0.76795 14.5249 1.08407 12.7 1.73278 10.9828C2.33312 9.45143 3.31294 8.09788 4.58016 7.0493C5.43456 6.31114 6.38066 5.68633 7.395 5.19037C8.3633 4.74571 9.38866 4.43769 10.4417 4.27514V0H19.3174V4.09616C20.6734 4.21588 22.0219 4.41006 23.3566 4.67784L24.1051 4.80801C24.7274 4.91783 25.3457 5.0358 25.9599 5.16596C26.5741 5.29613 27.0907 5.40596 27.6195 5.53205L28.2216 5.67849V15.3108L27.3673 15.2376C26.5213 15.1643 25.663 15.0993 24.8006 15.0464C23.861 14.9854 22.901 14.9365 21.9207 14.8918C20.9404 14.8471 19.9275 14.8145 19.0367 14.7942C18.2232 14.7942 17.3405 14.7657 16.4171 14.7657C15.9331 14.7657 15.4856 14.7657 15.0789 14.8145C14.686 14.8422 14.295 14.8911 13.9074 14.961C13.6264 15.0113 13.353 15.0975 13.0938 15.2172C12.8923 15.3102 12.708 15.4367 12.5488 15.5914C12.4166 15.7269 12.3177 15.8912 12.26 16.0714C12.1763 16.3343 12.1365 16.6092 12.142 16.885V17.4138C12.1335 17.7081 12.1833 18.0011 12.2884 18.2761C12.3781 18.4868 12.5177 18.6724 12.6952 18.8171C12.9246 18.9939 13.1897 19.1188 13.4721 19.1832C13.9051 19.2858 14.3492 19.3336 14.7941 19.3256H18.2923C19.4917 19.3169 20.6882 19.4424 21.8597 19.6998C22.9066 19.9293 23.914 20.3117 24.8494 20.8347C26.5684 21.7881 27.9668 23.2289 28.8683 24.9756C29.3172 25.8503 29.6534 26.7783 29.869 27.7376C30.0934 28.7485 30.2053 29.7812 30.2025 30.8168V32.5659C30.2136 34.1138 30.0526 35.6582 29.7225 37.1705C29.4632 38.4149 28.9824 39.6026 28.3029 40.6769C27.6865 41.6259 26.9005 42.4532 25.9843 43.1175C25.0442 43.7851 23.9955 44.2846 22.8848 44.594L22.5878 44.6754C21.5281 45.0143 20.4384 45.2513 19.3337 45.3832V50H10.4458V45.4076Z" fill="#6984A5"/>
</svg>
