<svg width="25" height="25" viewBox="0 0 25 25" fill="none" xmlns="http://www.w3.org/2000/svg">
<path d="M20.8335 12.552C20.814 10.964 20.3411 9.41462 19.4705 8.08635C18.5999 6.75808 17.3679 5.70623 15.9196 5.0547C14.4711 4.40317 12.8667 4.17909 11.2953 4.40883C9.72386 4.63858 8.25077 5.31258 7.04955 6.35148C5.84833 7.39038 4.96898 8.7509 4.51508 10.2728C4.06118 11.7947 4.05162 13.4146 4.48753 14.9418C4.92345 16.469 5.78668 17.8397 6.97557 18.8928C8.16444 19.9458 9.62947 20.6371 11.1981 20.8854V14.9791H9.11477V12.552H11.1981V10.7083C11.1499 10.2796 11.1963 9.84551 11.3342 9.43672C11.4722 9.02793 11.6981 8.65439 11.9961 8.34246C12.2941 8.03052 12.657 7.7878 13.059 7.63144C13.4611 7.47506 13.8927 7.40885 14.3231 7.43747C14.9479 7.44602 15.5712 7.50174 16.1877 7.60414V9.68747H15.146C14.9664 9.66481 14.7839 9.68281 14.6123 9.74014C14.4405 9.79746 14.2838 9.89264 14.1538 10.0186C14.0238 10.1446 13.9238 10.2982 13.8612 10.4681C13.7985 10.638 13.7749 10.8197 13.7918 10.9999V12.5729H16.1043L15.7293 14.9999H13.8023V20.8333C15.7709 20.5219 17.5628 19.5153 18.8528 17.9959C20.1428 16.4765 20.8455 14.5451 20.8335 12.552Z" fill="#6984A5"/>
</svg>
