<svg width="25" height="25" viewBox="0 0 25 25" fill="none" xmlns="http://www.w3.org/2000/svg">
<path d="M15.6058 8.5128C16.6201 8.46337 16.7762 10.1254 15.663 9.97973C14.7397 9.95371 14.6226 8.53882 15.6058 8.5128Z" fill="white"/>
<path d="M18.9294 12.4715C19.0101 6.52316 16.6276 5.75329 11.1943 6.0836C7.4516 5.7949 5.98206 8.6299 5.97167 11.9825C5.76881 15.2649 6.78056 19.4133 10.8666 19.0648C15.967 18.9738 19.1661 18.4562 18.9294 12.4715ZM10.0109 2.23426C15.8526 1.69066 22.6149 2.52816 22.6956 9.83933C22.901 13.2049 23.0103 16.8124 21.3613 19.8659C19.6057 22.8517 16.6796 22.7269 13.6366 22.7971C10.9602 22.9037 8.20066 23.1352 5.62055 22.2587C2.99102 21.3484 2.27577 19.3639 2.33299 16.7682C2.24196 14.534 2.15092 12.305 2.18994 10.0682C2.31998 4.76753 4.6348 2.11201 10.0109 2.23426Z" fill="#6984A5"/>
<path d="M11.1942 6.08353C16.6275 5.75322 19.0073 6.52309 18.9293 12.4714C19.166 18.4561 15.9669 18.9711 10.8691 19.0647C6.78045 19.4132 5.77131 15.2622 5.97417 11.9824C5.98199 8.62983 7.45149 5.79483 11.1942 6.08353ZM17.7849 12.6587C17.7849 8.97577 17.3324 7.02507 13.1501 7.21233C11.9069 7.33457 10.4529 7.14991 9.20451 7.57387C6.69722 8.79889 7.04316 12.1671 7.27464 14.5027C7.50092 18.2766 10.6298 18.1648 13.5584 17.7435C17.1555 17.5536 17.8188 16.0008 17.7849 12.6587Z" fill="white"/>
<path d="M12.8957 10.2424C10.2479 10.1071 9.43128 14.4689 12.3365 14.5859C15.0675 14.5209 15.4862 11.0201 12.8957 10.2424ZM12.3417 9.24103C16.9141 8.93152 16.6332 15.6887 12.3209 15.6419C8.23485 15.517 8.61719 9.60517 12.3417 9.24103Z" fill="white"/>
<path d="M12.339 14.586C9.43381 14.4664 10.2479 10.1046 12.8982 10.2425C15.4862 11.0201 15.0674 14.521 12.339 14.586Z" fill="#6984A5"/>
<path d="M13.1503 7.21236C17.3326 7.02249 17.7877 8.97577 17.7851 12.6587C17.8163 16.0008 17.1557 17.5536 13.5586 17.7435C10.63 18.1648 7.50111 18.2766 7.27483 14.5027C7.04335 12.1645 6.70001 8.7989 9.2047 7.57387C10.4531 7.14994 11.9071 7.3346 13.1503 7.21236ZM12.3232 15.6419C16.6329 15.6887 16.9164 8.93155 12.344 9.24106C8.61689 9.6052 8.23457 15.5171 12.3232 15.6419ZM15.6628 9.97973C16.776 10.1254 16.6199 8.46598 15.6056 8.5128C14.6224 8.53882 14.7395 9.95371 15.6628 9.97973Z" fill="#6984A5"/>
</svg>
