<svg width="38" height="50" viewBox="0 0 38 50" fill="none" xmlns="http://www.w3.org/2000/svg">
<path d="M19 0C8.64531 0 0.25 8.39531 0.25 18.75C0.25 22.8273 1.58672 26.5688 3.80859 29.6328C3.84844 29.7063 3.85469 29.7883 3.9 29.8586L16.4 48.6086C16.9797 49.4781 17.9562 50 19 50C20.0438 50 21.0203 49.4781 21.6 48.6086L34.1 29.8586C34.1461 29.7883 34.1516 29.7063 34.1914 29.6328C36.4133 26.5688 37.75 22.8273 37.75 18.75C37.75 8.39531 29.3547 0 19 0ZM19 25C15.5484 25 12.75 22.2016 12.75 18.75C12.75 15.2984 15.5484 12.5 19 12.5C22.4516 12.5 25.25 15.2984 25.25 18.75C25.25 22.2016 22.4516 25 19 25Z" fill="#6984A5"/>
</svg>
