<svg width="163" height="41" viewBox="0 0 163 41" fill="none" xmlns="http://www.w3.org/2000/svg">
<path d="M19.9986 29.1109C19.1198 29.9478 16.318 32.2765 13.5975 33.0994H13.5891C13.5583 33.1106 10.5551 34.205 8.10322 34.205C7.73097 34.2106 7.35871 34.1798 6.98926 34.1182C6.56942 33.6928 2.29547 29.3041 1.80566 25.769C6.102 28.9878 9.98689 29.6987 12.4975 29.7239C12.6571 29.7603 12.9873 29.7771 13.6647 29.7771C14.9046 29.7771 16.987 29.6595 19.9986 29.1109Z" fill="#6984A5"/>
<path d="M12.4888 29.5191C11.1733 29.4156 7.35835 28.8614 5.34033 27.6019L5.30114 27.5795H5.28715C5.00726 27.4535 1.32109 25.7182 0 23.3307C0.0195924 22.7765 0.274293 16.7337 2.52742 13.96C3.10959 19.2863 5.23397 22.6086 6.92732 24.4615C7.02248 24.5986 7.12884 24.7302 7.24079 24.8561C7.43392 25.0829 7.76699 25.4523 8.2568 25.9393C9.06009 26.7342 10.4288 27.9881 12.4888 29.5191Z" fill="#F1A350"/>
<path d="M7.13202 24.2854C6.37071 23.4821 4.31071 20.8231 3.60539 17.6743L3.59419 17.6295L3.58579 17.6239C3.48503 17.2881 2.34867 13.3864 2.93645 10.9177C3.37308 10.5231 7.89053 6.54584 11.4396 6.25195C7.99129 10.3748 7.07604 14.2149 6.9137 16.7171C6.84373 16.997 6.78216 17.8395 6.76816 18.6875C6.75417 19.8295 6.80175 21.7076 7.13202 24.2854Z" fill="#6984A5"/>
<path d="M12.444 11.3993V11.4021C12.1613 11.5673 11.4224 12.211 10.9354 12.6756C10.1097 13.4593 8.80261 14.8084 7.19043 16.8488C7.22961 15.7432 7.69144 12.4125 9.44636 9.70318L9.47155 9.664V9.6556C9.63668 9.35052 11.6379 5.80429 13.8071 4.5C14.3948 4.53918 20.3957 4.98141 23.0911 7.31011C17.7339 7.72715 14.3445 9.76196 12.444 11.3993Z" fill="#F1A350"/>
<path d="M29.9222 16.0593C25.7126 12.7454 21.8501 11.9393 19.3423 11.8526C19.2051 11.8302 19.0624 11.8134 18.9225 11.8078C18.6733 11.7882 18.2535 11.7658 17.6713 11.7658C16.4846 11.7658 14.517 11.8582 11.7656 12.2948C12.5493 11.5111 15.1439 9.36993 18.2675 8.56944L18.3123 8.55824L18.3207 8.54984C18.6566 8.42389 21.3883 7.57862 23.6638 7.57862C24.1116 7.57302 24.5595 7.61501 24.9989 7.69897C25.4075 8.12721 29.5191 12.5187 29.9222 16.0593Z" fill="#6984A5"/>
<path d="M29.2183 30.2804C28.7929 30.6863 24.407 34.8063 20.8691 35.2149C24.1831 30.9913 24.9751 27.1204 25.0563 24.6098C25.1179 24.3103 25.1515 23.4063 25.1403 22.6366C25.1235 21.4974 25.0143 19.6221 24.6029 17.0527C25.3894 17.8308 27.5362 20.4254 28.3394 23.549L28.3506 23.591L28.359 23.5994C28.3898 23.6862 28.499 24.0276 28.6389 24.5286C28.9076 25.5027 29.2771 27.0784 29.3359 28.5591C29.3639 29.1385 29.3247 29.715 29.2183 30.2804Z" fill="#6984A5"/>
<path d="M23.0434 30.9668L23.021 31.0087V31.0199C22.8811 31.339 21.1737 35.028 19.1081 36.5002H18.8534C17.759 36.5002 12.3124 36.3967 9.63379 34.4262C14.9237 33.5893 18.1397 31.3026 19.9086 29.5225C20.0458 29.419 20.1773 29.3042 20.3005 29.1866C20.5272 28.9767 20.8966 28.6213 21.3724 28.1035C22.1561 27.2498 23.3765 25.8 24.8207 23.6504C24.8263 24.7588 24.6136 28.0671 23.0434 30.9668Z" fill="#F1A350"/>
<path d="M25.6415 17.5572H25.6387C25.4792 17.269 24.8522 16.5189 24.3988 16.0206C23.6291 15.1754 22.3136 13.8375 20.3096 12.1777C21.4123 12.2421 24.7347 12.7739 27.4048 14.5876L27.444 14.6128H27.4524C27.7547 14.7835 31.2561 16.8603 32.51 19.0603C32.4597 19.648 31.8859 25.6349 29.4984 28.2799C29.1933 22.9256 27.2369 19.4941 25.6415 17.5572Z" fill="#F1A350"/>
<path d="M14.761 14.8226C15.9198 14.775 17.0589 15.1332 17.9714 15.833C18.2541 16.0569 18.4836 16.3396 18.7579 16.5775C18.8726 16.6838 19.0126 16.765 19.1665 16.8098C19.9166 16.9441 20.6191 17.2688 21.2013 17.7502C21.4308 17.9433 21.6128 18.1813 21.7331 18.4527C21.8535 18.7242 21.9066 19.0153 21.8927 19.312C21.8675 19.7151 21.7667 19.8354 21.3665 19.9446C21.2965 19.9586 21.2293 19.9922 21.1761 20.0397C21.123 20.0873 21.0838 20.1489 21.0642 20.2161C20.9634 20.4848 20.7815 20.7143 20.5408 20.8794C20.3001 21.0445 20.0146 21.1341 19.7235 21.1341C19.4296 21.1369 19.1441 21.0529 18.9006 20.8934C18.6571 20.7339 18.4724 20.5044 18.366 20.2385C18.3548 20.1881 18.324 20.1461 18.2793 20.1181C18.2345 20.0901 18.1841 20.0789 18.1309 20.0873H13.9101C13.8598 20.0789 13.8066 20.0901 13.7618 20.1181C13.717 20.1461 13.6862 20.1881 13.6722 20.2357C13.5659 20.4988 13.3784 20.7227 13.1348 20.8794C12.8913 21.0361 12.6059 21.1173 12.3148 21.1089C12.0237 21.1145 11.7382 21.0305 11.4947 20.871C11.254 20.7115 11.0692 20.482 10.9657 20.2161C10.9489 20.1629 10.9153 20.1153 10.8733 20.0789C10.8285 20.0425 10.7754 20.0201 10.7166 20.0117C10.6606 20.0005 10.6046 19.9838 10.5514 19.9614C10.3891 19.925 10.2436 19.8354 10.1428 19.7067C10.042 19.5779 9.98887 19.4184 9.99726 19.256C9.94129 17.9685 10.266 16.8042 11.2876 15.9281C11.9649 15.3683 12.8018 15.0185 13.689 14.9317C14.0417 14.8645 14.4028 14.8533 14.761 14.8226ZM16.6027 17.196H17.8314C18.0833 17.196 18.1477 17.0869 18.0302 16.877C17.9406 16.695 17.8258 16.5271 17.6943 16.3732C17.0002 15.6118 16.0793 15.4383 15.1053 15.4215C15.0661 15.4215 14.9821 15.5335 14.9877 15.5839C15.0409 16.0485 15.1193 16.5047 15.1781 16.9693C15.2032 17.1513 15.2984 17.196 15.4775 17.1932C15.8414 17.1904 16.2221 17.196 16.6027 17.196ZM13.2524 17.196H14.2852C14.4056 17.196 14.5063 17.1764 14.4895 17.0253C14.4391 16.5607 14.3804 16.0989 14.33 15.6342C14.316 15.4859 14.2348 15.4187 14.0865 15.4383C13.8374 15.4607 13.5883 15.5027 13.3448 15.5587C13.0397 15.6258 12.7514 15.7574 12.5051 15.9477C12.2588 16.1352 12.0573 16.376 11.9201 16.6502C11.7382 17.0169 11.8222 17.1736 12.2392 17.1904C12.5751 17.2044 12.9137 17.1932 13.2496 17.1932L13.2524 17.196ZM12.3176 20.4848C12.4743 20.4848 12.6282 20.44 12.7598 20.3532C12.8913 20.2692 12.9921 20.1489 13.0537 20.0061C13.1153 19.8662 13.1292 19.7095 13.0985 19.5583C13.0677 19.4072 12.9921 19.27 12.8801 19.1637C12.7682 19.0545 12.6282 18.9817 12.4743 18.951C12.3204 18.9202 12.1608 18.937 12.0153 18.9957C11.8697 19.0545 11.7466 19.1525 11.657 19.2812C11.5703 19.4072 11.5227 19.5583 11.5227 19.7095C11.5227 19.9138 11.6066 20.1097 11.755 20.2553C11.9033 20.4036 12.1076 20.4848 12.3176 20.4848ZM20.5044 19.7179C20.5044 19.6171 20.4848 19.5163 20.4456 19.424C20.4064 19.3316 20.3477 19.2448 20.2749 19.1749C20.2021 19.1049 20.1125 19.0489 20.0174 19.0097C19.9222 18.9705 19.8187 18.9538 19.7151 18.9538C19.5052 18.9566 19.3037 19.0405 19.1553 19.1861C19.007 19.3316 18.9258 19.5303 18.9286 19.7347C18.9314 19.939 19.0182 20.1349 19.1693 20.2776C19.3205 20.4204 19.5248 20.4988 19.7347 20.496C19.8383 20.4932 19.9418 20.4736 20.0342 20.4316C20.1293 20.3924 20.2161 20.3336 20.2861 20.2608C20.3588 20.1881 20.4148 20.1013 20.4512 20.0089C20.4876 19.9194 20.5072 19.8186 20.5044 19.7179Z" fill="#F1A350"/>
<path d="M12.9788 22.6315V23.8546C12.9788 24.0729 12.9564 24.2633 12.9172 24.4256C12.8389 24.6803 12.6905 24.9042 12.4946 25.0778C12.3351 25.2177 12.1447 25.3213 11.9376 25.38C11.8173 25.4136 11.6885 25.4304 11.5598 25.4304H11.3583C11.2211 25.4304 11.0868 25.4108 10.958 25.3744C11.1343 25.3241 11.2967 25.2373 11.4366 25.1281C11.4422 25.1225 11.4506 25.1169 11.4562 25.1113C11.4646 25.1029 11.473 25.0974 11.4842 25.089C11.7109 24.9518 11.8677 24.7055 11.9404 24.3444C11.9656 24.2409 11.9796 24.1317 11.9796 24.0198C11.9824 23.9666 11.9852 23.9134 11.9852 23.8574V21.9766L12.9788 22.6315Z" fill="#F1A350"/>
<path d="M11.4359 25.1255C11.296 25.2374 11.1336 25.3214 10.9573 25.3718C10.767 25.3158 10.5934 25.2206 10.4451 25.0975C10.2408 24.9268 10.084 24.6973 10.0029 24.437C9.96087 24.2718 9.93848 24.0787 9.93848 23.8548V22.2286L10.8957 21.3945V24.0087C10.8957 24.4593 11.1028 24.8596 11.4303 25.1199C11.4303 25.1227 11.4331 25.1227 11.4359 25.1255Z" fill="#6984A5"/>
<path d="M15.2715 25.2073H14.6455L14.1599 24.5057H14.1311H13.6238V25.2073H13.041V22.689H14.1311C14.8038 22.689 15.2247 23.0379 15.2247 23.6027C15.2247 23.9805 15.0341 24.2575 14.7067 24.3978L15.2715 25.2073ZM14.6347 23.6027C14.6347 23.3257 14.4549 23.1638 14.0987 23.1638H13.6238V24.0416H14.0987C14.4549 24.0416 14.6347 23.8762 14.6347 23.6027Z" fill="#6984A5"/>
<path d="M15.6865 25.2073V22.689H16.2693V25.2073H15.6865Z" fill="#6984A5"/>
<path d="M16.8669 25.2073V22.689H18.011C18.8348 22.689 19.3996 23.1854 19.3996 23.9481C19.3996 24.7108 18.8348 25.2073 18.011 25.2073H16.8669ZM17.4497 24.7288H17.9822C18.4822 24.7288 18.8096 24.4302 18.8096 23.9481C18.8096 23.466 18.4822 23.1674 17.9822 23.1674H17.4497V24.7288Z" fill="#6984A5"/>
<path d="M20.4183 24.7396H21.789V25.2073H19.8391V22.689H21.7422V23.1566H20.4183V23.7035H21.5875V24.1568H20.4183V24.7396Z" fill="#6984A5"/>
<path fill-rule="evenodd" clip-rule="evenodd" d="M15.9733 12.67C11.4951 12.67 7.86485 16.3003 7.86485 20.7785C7.86485 25.2567 11.4951 28.8869 15.9733 28.8869C20.4515 28.8869 24.0818 25.2567 24.0818 20.7785C24.0818 16.3003 20.4515 12.67 15.9733 12.67ZM7.58496 20.7785C7.58496 16.1457 11.3406 12.3901 15.9733 12.3901C20.6061 12.3901 24.3617 16.1457 24.3617 20.7785C24.3617 25.4112 20.6061 29.1668 15.9733 29.1668C11.3406 29.1668 7.58496 25.4112 7.58496 20.7785Z" fill="#6984A5"/>
<path fill-rule="evenodd" clip-rule="evenodd" d="M45.5098 6.5C46.0621 6.5 46.5098 6.94772 46.5098 7.5L46.5098 33.499C46.5098 33.4992 46.5098 33.5 45.5098 33.5C44.5098 33.5 44.5098 33.4999 44.5098 33.4997L44.5098 7.5C44.5098 6.94772 44.9575 6.5 45.5098 6.5ZM45.5098 34.5C44.9575 34.5 44.5098 34.052 44.5098 33.4997L45.5098 33.5L46.5098 33.5C46.5098 34.0523 46.0621 34.5 45.5098 34.5Z" fill="#F1A350"/>
<path d="M70.3298 5.28809V13.1244C70.3298 15.0906 69.834 16.561 68.848 17.5355C67.8621 18.5101 66.386 19.0002 64.4312 19.0002C62.4593 19.0002 60.9775 18.5101 59.9915 17.5355C59.0056 16.561 58.5098 15.0906 58.5098 13.1244V5.28809H62.4479V13.3467C62.4479 14.1673 62.6131 14.7772 62.9494 15.1875C63.2799 15.5978 63.7758 15.803 64.4312 15.803C65.0866 15.803 65.5767 15.5978 65.9129 15.1875C66.2435 14.7772 66.4145 14.1673 66.4145 13.3467V5.28809H70.3298Z" fill="#F1A350"/>
<path d="M84.6404 5.28793L80.2577 18.7892H75.6072L71.2246 5.28793H75.3166L77.3512 13.0388L78.0066 15.6775L78.6221 13.0786L80.6795 5.28223H84.6404V5.28793Z" fill="#F1A350"/>
<path d="M89.713 5.28809V18.7893H85.792V5.28809H89.713Z" fill="#F1A350"/>
<path d="M97.9364 5.08301C99.2529 5.08301 100.387 5.35657 101.327 5.90938C102.268 6.4622 102.992 7.25438 103.499 8.29162C104.006 9.32887 104.257 10.577 104.257 12.036C104.257 13.4949 104.006 14.743 103.499 15.7803C102.992 16.8175 102.268 17.6097 101.327 18.1625C100.387 18.7153 99.2529 18.9889 97.9364 18.9889C96.6313 18.9889 95.4972 18.7153 94.5454 18.1625C93.5937 17.6097 92.8585 16.8175 92.3456 15.7803C91.8326 14.743 91.5762 13.4949 91.5762 12.036C91.5762 10.577 91.8326 9.32887 92.3456 8.29162C92.8585 7.25438 93.5937 6.4622 94.5454 5.90938C95.5029 5.35657 96.6313 5.08301 97.9364 5.08301ZM97.9364 8.27453C97.4121 8.27453 96.979 8.417 96.637 8.69626C96.2951 8.97552 96.0386 9.38586 95.8676 9.93297C95.6966 10.4801 95.6055 11.1811 95.6055 12.0417C95.6055 12.8851 95.6909 13.5861 95.8676 14.1389C96.0386 14.6918 96.2951 15.1078 96.637 15.387C96.9733 15.6663 97.4064 15.8088 97.9364 15.8088C98.4493 15.8088 98.8768 15.6663 99.2244 15.387C99.5721 15.1078 99.8285 14.6918 99.9938 14.1389C100.159 13.5861 100.245 12.8851 100.245 12.0417C100.245 11.1811 100.159 10.4801 99.9938 9.93297C99.8285 9.38586 99.5721 8.97552 99.2244 8.69626C98.8768 8.4113 98.4493 8.27453 97.9364 8.27453Z" fill="#F1A350"/>
<path d="M121.685 5.28809V18.7893H118.225V13.3866L118.3 9.03242H118.26L115.473 18.7893H112.321L109.574 9.03242H109.517L109.591 13.3866V18.7893H106.132V5.28809H111.666L113.375 11.6939L114.008 14.3725H114.048L114.681 11.6939L116.39 5.28809H121.685Z" fill="#F1A350"/>
<path d="M128.228 5.28809C129.801 5.28809 131.026 5.67563 131.886 6.44501C132.753 7.21439 133.186 8.24024 133.186 9.52255C133.186 10.953 132.764 12.0359 131.921 12.7768C131.077 13.5119 129.858 13.8824 128.268 13.8824L127.886 14.1104H125.578V18.795H121.736V5.28809H128.228ZM127.589 11.2608C128.142 11.2608 128.552 11.1468 128.826 10.9245C129.1 10.6966 129.236 10.3261 129.236 9.8075C129.236 9.28888 129.1 8.91274 128.826 8.68477C128.552 8.45111 128.136 8.33713 127.589 8.33713H125.572V11.2608H127.589ZM129.915 12.1385L133.91 18.7893H129.624L126.529 12.8793L129.915 12.1385Z" fill="#6A83A3"/>
<path d="M136.833 7.65885C136.064 7.65885 135.511 7.51637 135.169 7.23141C134.827 6.94645 134.662 6.47913 134.662 5.84082C134.662 5.18542 134.833 4.71809 135.169 4.42744C135.506 4.13678 136.064 4 136.833 4C137.603 4 138.156 4.14248 138.498 4.42744C138.834 4.71239 139.005 5.18542 139.005 5.84082C139.005 6.47913 138.834 6.94645 138.498 7.23141C138.156 7.51637 137.603 7.65885 136.833 7.65885ZM138.771 8.55931V18.7893H134.89V8.55931H138.771Z" fill="#6A83A3"/>
<path d="M144.116 18.9944C143.335 18.9944 142.657 18.7836 142.087 18.3675C141.517 17.9515 141.084 17.3474 140.782 16.5552C140.48 15.763 140.332 14.817 140.332 13.7113C140.332 12.5772 140.486 11.6141 140.794 10.8162C141.101 10.0183 141.546 9.40849 142.127 8.98675C142.709 8.56502 143.392 8.35415 144.173 8.35415C145.085 8.35415 145.792 8.6562 146.305 9.26601C146.818 9.87012 147.142 10.6452 147.285 11.5856L146.937 12.0985V4.34766H150.818V18.7893H147.319L147.091 14.9652L147.536 15.4382C147.462 16.1335 147.268 16.749 146.966 17.2904C146.664 17.8318 146.276 18.2479 145.792 18.5499C145.313 18.8406 144.755 18.9944 144.116 18.9944ZM145.615 16.048C145.894 16.048 146.134 15.9625 146.328 15.7801C146.521 15.5978 146.669 15.3356 146.778 14.9822C146.886 14.6289 146.943 14.1844 146.943 13.6543C146.943 13.1528 146.897 12.7254 146.801 12.3777C146.704 12.0301 146.555 11.7679 146.356 11.5913C146.157 11.4146 145.911 11.3234 145.615 11.3234C145.193 11.3234 144.857 11.4944 144.606 11.8477C144.356 12.1954 144.23 12.8052 144.23 13.6771C144.23 14.5491 144.35 15.1646 144.595 15.518C144.84 15.8713 145.176 16.048 145.615 16.048Z" fill="#6A83A3"/>
<path d="M157.624 18.9941C156.524 18.9941 155.572 18.7833 154.769 18.3672C153.965 17.9512 153.355 17.3471 152.922 16.5549C152.495 15.7627 152.278 14.7996 152.278 13.6711C152.278 12.537 152.495 11.5796 152.934 10.7874C153.367 9.9952 153.977 9.39109 154.757 8.97505C155.538 8.55901 156.444 8.34814 157.465 8.34814C158.513 8.34814 159.408 8.55901 160.143 8.97505C160.878 9.39109 161.443 9.9667 161.836 10.7019C162.229 11.4371 162.423 12.2976 162.423 13.2779C162.423 13.5116 162.411 13.7395 162.394 13.9732C162.377 14.2069 162.354 14.4006 162.326 14.5659H154.775V12.7764H160.633L158.787 13.5344C158.787 12.7593 158.69 12.1666 158.49 11.7619C158.291 11.3573 157.949 11.1578 157.465 11.1578C157.134 11.1578 156.855 11.2376 156.627 11.4029C156.404 11.5682 156.234 11.8417 156.125 12.2236C156.017 12.6054 155.96 13.1069 155.96 13.7395C155.96 14.3721 156.028 14.8623 156.159 15.2213C156.296 15.5804 156.484 15.8311 156.724 15.9679C156.963 16.1047 157.276 16.1731 157.647 16.1731C158.057 16.1731 158.376 16.0819 158.61 15.9052C158.838 15.7285 159.009 15.4835 159.112 15.17L162.223 16.1503C162.069 16.7772 161.756 17.3015 161.294 17.7232C160.827 18.145 160.274 18.4641 159.63 18.675C158.986 18.8859 158.325 18.9941 157.624 18.9941Z" fill="#6A83A3"/>
<path d="M61.2048 29.5926C62.5133 29.5926 63.5378 29.8349 64.284 30.3158C65.0301 30.7967 65.4032 31.4901 65.4032 32.3848C65.4032 33.2795 65.0301 33.9728 64.284 34.4575C63.5378 34.9421 62.5133 35.1807 61.2048 35.1807H58.5098V29.5889H61.2048V29.5926ZM61.305 34.5469C62.2572 34.5469 63.0033 34.3568 63.5378 33.9766C64.0724 33.5963 64.3397 33.067 64.3397 32.3885C64.3397 31.71 64.0724 31.1807 63.5378 30.8004C63.0033 30.4202 62.2572 30.2301 61.305 30.2301H59.5232V34.5507H61.305V34.5469Z" fill="#141421"/>
<path d="M67.3799 35.1809V30.9461H68.204L68.3432 31.6395C68.5214 31.3785 68.7775 31.1847 69.1227 31.0542C69.4624 30.9237 69.88 30.8604 70.37 30.8604C70.4814 30.8604 70.5983 30.8678 70.7319 30.879C70.86 30.8902 70.9769 30.9125 71.066 30.9461L70.8878 31.5649C70.7932 31.5426 70.693 31.5239 70.5816 31.5127C70.4702 31.5015 70.3143 31.4978 70.1139 31.4978C69.8522 31.4978 69.5904 31.55 69.3232 31.6507C69.0559 31.7513 68.8387 31.9079 68.6606 32.1129C68.4824 32.3179 68.3933 32.5789 68.3933 32.8958V35.1809H67.3799Z" fill="#141421"/>
<path d="M73.048 30.1333C72.8197 30.1333 72.636 30.0885 72.4967 29.9916C72.3575 29.8947 72.2852 29.7754 72.2852 29.6225C72.2852 29.4697 72.352 29.3467 72.4967 29.2535C72.636 29.1603 72.8197 29.1118 73.048 29.1118C73.2763 29.1118 73.46 29.1566 73.5992 29.2535C73.7385 29.3467 73.8108 29.4697 73.8108 29.6225C73.8108 29.7754 73.744 29.8984 73.5992 29.9916C73.4545 30.0848 73.2763 30.1333 73.048 30.1333ZM73.5547 30.9459V35.1808H72.5413V30.9459H73.5547Z" fill="#141421"/>
<path d="M80.0914 30.9458H81.1549L78.5212 35.1807H77.5078L74.874 30.9458H76.0266L78.0256 34.4947L80.0914 30.9458Z" fill="#141421"/>
<path d="M85.1314 35.2664C84.53 35.2664 84.001 35.1806 83.5277 35.0054C83.06 34.8302 82.6925 34.5767 82.4364 34.2487C82.1746 33.9169 82.041 33.5255 82.041 33.0669C82.041 32.6084 82.1746 32.217 82.4364 31.8852C82.6981 31.5534 83.0544 31.3037 83.511 31.1284C83.9676 30.9532 84.4854 30.8638 85.0645 30.8638C85.6548 30.8638 86.1615 30.9495 86.5791 31.1173C86.9967 31.2887 87.3141 31.5161 87.5312 31.8069C87.7484 32.0977 87.8598 32.4257 87.8598 32.7836C87.8598 32.8805 87.8542 32.9663 87.8486 33.0446C87.8375 33.1229 87.8264 33.1937 87.8097 33.2571H82.6981V32.6569H87.3642L86.8464 32.724C86.8464 32.3176 86.6793 32.0045 86.3452 31.7846C86.0111 31.5646 85.5768 31.4528 85.0367 31.4528C84.6246 31.4528 84.2683 31.5161 83.9676 31.6429C83.6669 31.7696 83.4331 31.9523 83.2716 32.1946C83.1101 32.4369 83.0266 32.724 83.0266 33.0632C83.0266 33.395 83.1101 33.6858 83.2827 33.9281C83.4498 34.1704 83.6892 34.3568 83.9954 34.4835C84.3017 34.6103 84.6748 34.6736 85.1035 34.6736C85.5657 34.6736 85.9443 34.614 86.2339 34.4947C86.5234 34.3754 86.7573 34.2151 86.9354 34.0138L87.7317 34.327C87.5702 34.5208 87.3642 34.6848 87.1192 34.8265C86.8686 34.9681 86.5791 35.0763 86.245 35.1508C85.9165 35.2291 85.5434 35.2664 85.1314 35.2664Z" fill="#141421"/>
<path d="M95.2986 34.5469H100.082V35.1807H94.2852V29.5889H95.2986V34.5469Z" fill="#141421"/>
<path d="M102.17 30.1333C101.942 30.1333 101.758 30.0885 101.619 29.9916C101.48 29.8947 101.407 29.7754 101.407 29.6225C101.407 29.4697 101.474 29.3467 101.619 29.2535C101.758 29.1603 101.942 29.1118 102.17 29.1118C102.398 29.1118 102.582 29.1566 102.721 29.2535C102.861 29.3467 102.933 29.4697 102.933 29.6225C102.933 29.7754 102.866 29.8984 102.721 29.9916C102.577 30.0848 102.398 30.1333 102.17 30.1333ZM102.677 30.9459V35.1808H101.663V30.9459H102.677Z" fill="#141421"/>
<path d="M106.04 29V35.1845H105.026V29H106.04ZM110.583 30.9459L107.849 32.7763L107.61 32.9366L105.533 34.3271V33.4809L109.303 30.9497H110.583V30.9459ZM107.939 32.4296L110.734 35.1808H109.509L107.092 32.8099L107.939 32.4296Z" fill="#141421"/>
<path d="M114.621 35.2664C114.019 35.2664 113.49 35.1806 113.017 35.0054C112.549 34.8302 112.182 34.5767 111.926 34.2487C111.664 33.9169 111.53 33.5255 111.53 33.0669C111.53 32.6084 111.664 32.217 111.926 31.8852C112.187 31.5534 112.544 31.3037 113 31.1284C113.457 30.9532 113.975 30.8638 114.554 30.8638C115.144 30.8638 115.651 30.9495 116.068 31.1173C116.486 31.2887 116.803 31.5161 117.021 31.8069C117.238 32.0977 117.349 32.4257 117.349 32.7836C117.349 32.8805 117.343 32.9663 117.338 33.0446C117.327 33.1229 117.316 33.1937 117.299 33.2571H112.187V32.6569H116.853L116.336 32.724C116.336 32.3176 116.169 32.0045 115.834 31.7846C115.5 31.5646 115.066 31.4528 114.526 31.4528C114.114 31.4528 113.758 31.5161 113.457 31.6429C113.156 31.7696 112.922 31.9523 112.761 32.1946C112.599 32.4369 112.516 32.724 112.516 33.0632C112.516 33.395 112.599 33.6858 112.772 33.9281C112.939 34.1704 113.178 34.3568 113.485 34.4835C113.791 34.6103 114.164 34.6736 114.593 34.6736C115.055 34.6736 115.434 34.614 115.723 34.4947C116.013 34.3754 116.247 34.2151 116.425 34.0138L117.221 34.327C117.059 34.5208 116.853 34.6848 116.608 34.8265C116.358 34.9681 116.068 35.0763 115.734 35.1508C115.406 35.2291 115.033 35.2664 114.621 35.2664Z" fill="#141421"/>
<path d="M129.627 30.2263H124.794V32.0306H128.563V32.6644H124.794V35.1807H123.78V29.5889H129.627V30.2263Z" fill="#141421"/>
<path d="M134.353 32.4447C134.353 32.1278 134.225 31.8855 133.974 31.7103C133.718 31.5388 133.362 31.4531 132.9 31.4531C132.46 31.4531 132.092 31.5165 131.786 31.6432C131.48 31.77 131.257 31.975 131.112 32.2583L130.288 31.9191C130.455 31.6022 130.767 31.3487 131.224 31.1511C131.68 30.9573 132.243 30.8604 132.916 30.8604C133.373 30.8604 133.785 30.9125 134.158 31.0169C134.531 31.1213 134.821 31.2779 135.038 31.4904C135.255 31.7029 135.361 31.975 135.361 32.3068V34.3571C135.361 34.5584 135.522 34.6628 135.84 34.6628C136.001 34.6628 136.157 34.6479 136.307 34.6218L136.257 35.1549C136.09 35.2108 135.868 35.2406 135.6 35.2406C135.355 35.2406 135.138 35.2108 134.943 35.1474C134.748 35.084 134.598 34.9908 134.487 34.8641C134.375 34.7373 134.32 34.577 134.32 34.3869V34.3012L134.576 34.3273C134.476 34.5472 134.303 34.7261 134.058 34.8641C133.813 35.002 133.54 35.1027 133.234 35.1698C132.933 35.2331 132.632 35.2667 132.337 35.2667C131.964 35.2667 131.619 35.2257 131.302 35.1399C130.979 35.0542 130.728 34.9275 130.539 34.756C130.35 34.5845 130.255 34.372 130.255 34.1148C130.255 33.7979 130.411 33.537 130.728 33.3319C131.046 33.1269 131.485 32.9852 132.048 32.9144L134.554 32.5826V33.1418L132.516 33.4214C132.104 33.4773 131.797 33.5556 131.591 33.66C131.391 33.7606 131.285 33.9023 131.285 34.085C131.285 34.2602 131.391 34.4018 131.597 34.5137C131.803 34.6218 132.098 34.6777 132.477 34.6777C132.722 34.6777 132.955 34.6553 133.178 34.6143C133.401 34.5733 133.601 34.5062 133.78 34.4205C133.958 34.331 134.097 34.2229 134.197 34.0887C134.297 33.9545 134.347 33.7979 134.347 33.619V32.4447H134.353Z" fill="#141421"/>
<path d="M137.823 35.1809V30.9461H138.709L138.77 31.6059C138.998 31.345 139.293 31.1549 139.661 31.0393C140.028 30.92 140.407 30.8604 140.791 30.8604C141.237 30.8604 141.66 30.9275 142.055 31.0654C142.45 31.1996 142.757 31.4083 142.968 31.6917C143.102 31.5015 143.291 31.345 143.536 31.222C143.781 31.0989 144.048 31.0095 144.338 30.9498C144.628 30.8902 144.906 30.8604 145.168 30.8604C145.574 30.8604 145.958 30.9163 146.326 31.0318C146.693 31.1474 146.994 31.3189 147.228 31.5575C147.462 31.796 147.584 32.1017 147.584 32.4708V35.1809H146.571V32.5379C146.571 32.1539 146.426 31.8781 146.142 31.7066C145.858 31.5388 145.502 31.4531 145.079 31.4531C144.75 31.4531 144.444 31.5053 144.154 31.6134C143.865 31.7215 143.636 31.8781 143.464 32.0868C143.291 32.2956 143.202 32.5528 143.202 32.8585V35.1772H142.189V32.5342C142.189 32.1502 142.044 31.8743 141.76 31.7029C141.476 31.5314 141.12 31.4494 140.696 31.4494C140.418 31.4494 140.134 31.4978 139.844 31.5985C139.555 31.6991 139.31 31.8557 139.115 32.0682C138.92 32.2844 138.826 32.564 138.826 32.9144V35.1772H137.823V35.1809Z" fill="#141421"/>
<path d="M150.385 30.1333C150.157 30.1333 149.973 30.0885 149.834 29.9916C149.694 29.8947 149.622 29.7754 149.622 29.6225C149.622 29.4697 149.689 29.3467 149.834 29.2535C149.973 29.1603 150.157 29.1118 150.385 29.1118C150.613 29.1118 150.797 29.1566 150.936 29.2535C151.075 29.3467 151.148 29.4697 151.148 29.6225C151.148 29.7754 151.081 29.8984 150.936 29.9916C150.791 30.0848 150.613 30.1333 150.385 30.1333ZM150.892 30.9459V35.1808H149.878V30.9459H150.892Z" fill="#141421"/>
<path d="M154.205 29V34.1072C154.205 34.3234 154.266 34.4688 154.383 34.5508C154.5 34.6328 154.689 34.6738 154.951 34.6738C155.118 34.6738 155.257 34.6664 155.368 34.6477C155.48 34.6328 155.624 34.5993 155.808 34.5545L155.647 35.1473C155.513 35.1883 155.363 35.2144 155.201 35.2367C155.04 35.2554 154.878 35.2665 154.706 35.2665C154.193 35.2665 153.809 35.1733 153.559 34.987C153.308 34.8006 153.186 34.5135 153.186 34.1333V29H154.205Z" fill="#141421"/>
<path d="M162 30.9461L159.027 35.893C158.865 36.1689 158.693 36.3888 158.503 36.5491C158.314 36.7094 158.102 36.825 157.869 36.8958C157.635 36.9666 157.367 37.0002 157.067 37.0002C156.783 37.0002 156.516 36.9741 156.276 36.9182C156.037 36.866 155.825 36.7914 155.636 36.7019L155.914 36.1092C156.081 36.2099 156.259 36.2844 156.454 36.3329C156.649 36.3813 156.833 36.4037 157.017 36.4037C157.234 36.4037 157.44 36.359 157.635 36.2695C157.83 36.18 158.008 35.9974 158.169 35.7178L158.498 35.1661L157.863 34.1595L155.853 30.9424H157.006L158.587 33.7047L158.982 34.4578L159.439 33.619L160.92 30.9424H162V30.9461Z" fill="#141421"/>
</svg>
