<svg width="30" height="30" viewBox="0 0 30 30" fill="none" xmlns="http://www.w3.org/2000/svg">
<g clip-path="url(#clip0_1_3760)">
<path d="M16.0276 14.3605L9.04883 22.5301C9.30267 23.3939 10.1092 24 11.0106 24C11.403 24 11.7465 23.9019 12.0407 23.7057L20.6248 18.8026L16.0276 14.3605Z" fill="#EA4335"/>
<path d="M24.2555 13.2108L20.5763 11.1013L16.6523 14.9764L20.6255 18.8026L24.3044 16.7424C24.9422 16.3989 25.3837 15.7122 25.3837 14.9764C25.3345 14.2405 24.8933 13.5539 24.2555 13.2108Z" fill="#FBBC04"/>
<path d="M16.0107 15.6139L20.576 11.1014L12.09 6.29427C11.7957 6.09809 11.403 6 11.0106 6C10.0789 6 9.24501 6.63776 9.04883 7.4717L16.0107 15.6139Z" fill="#34A853"/>
<path d="M9.04887 7.47168C9 7.61864 9 7.81517 9 8.011V21.9911C9 22.1869 9 22.3342 9.04922 22.5304L16.6528 14.9764L9.04887 7.47168Z" fill="#4285F4"/>
</g>
<circle cx="15" cy="15" r="14.5" stroke="#F1A350"/>
<defs>
<clipPath id="clip0_1_3760">
<rect width="16.3835" height="18" fill="white" transform="translate(9 6)"/>
</clipPath>
</defs>
</svg>
