<svg width="53" height="50" viewBox="0 0 53 50" fill="none" xmlns="http://www.w3.org/2000/svg">
<path d="M45.3259 7.32204C40.8113 2.80161 34.5419 -0.00173558 27.6474 8.06169e-07V6.0601C32.8875 6.06183 37.6029 8.17563 41.0405 11.6073C44.4714 15.0441 46.5852 19.7603 46.5869 24.9996C46.5852 30.2388 44.4714 34.955 41.0405 38.3918C37.6029 41.8244 32.8875 43.9382 27.6474 43.939C22.4082 43.9382 17.692 41.8244 14.2552 38.3918C10.8234 34.955 8.70965 30.2388 8.70801 24.9996C8.70883 23.2816 8.94314 21.6272 9.36825 20.0515L11.8243 21.5813C12.1498 21.783 12.5456 21.8257 12.8703 21.6926C13.1975 21.5579 13.4117 21.2675 13.4368 20.9194L14.4946 7.06771C14.523 6.671 14.3054 6.27102 13.9357 6.03844C13.5624 5.80924 13.1064 5.7882 12.7641 5.99156L0.798562 13.0466C0.496532 13.2232 0.330758 13.5428 0.354251 13.8943C0.377641 14.2475 0.589378 14.583 0.915717 14.7854L4.05122 16.7386C3.14503 19.3286 2.6471 22.1101 2.6471 24.9996C2.64547 31.8932 5.45045 38.1625 9.96924 42.678C14.4846 47.1968 20.7531 50.0017 27.6475 50C34.5412 50.0017 40.8114 47.1968 45.326 42.678C49.8447 38.1625 52.6497 31.8932 52.648 24.9996C52.6496 18.1052 49.8446 11.8358 45.3259 7.32204Z" fill="#6984A5"/>
</svg>
