<svg width="25" height="25" viewBox="0 0 25 25" fill="none" xmlns="http://www.w3.org/2000/svg">
<path d="M22.4211 7.41145C22.4311 7.63123 22.436 7.85203 22.436 8.0738C22.436 14.8386 17.2866 22.6385 7.87187 22.6385C4.98081 22.6385 2.28975 21.791 0.0244141 20.3385C0.425391 20.386 0.832324 20.4103 1.2457 20.4103C3.64419 20.4103 5.85107 19.592 7.60356 18.2187C5.36299 18.1776 3.4729 16.6975 2.82144 14.6638C3.13433 14.7237 3.45464 14.7559 3.78481 14.7559C4.25112 14.7559 4.70356 14.693 5.1333 14.5762C2.79175 14.1058 1.02686 12.0371 1.02686 9.55691C1.02686 9.53513 1.02686 9.51384 1.02739 9.49255C1.71748 9.87571 2.50659 10.1059 3.34614 10.1326C1.97241 9.21487 1.06895 7.64802 1.06895 5.8718C1.06895 4.93372 1.3209 4.05452 1.76196 3.29856C4.28672 6.39553 8.05791 8.43313 12.3124 8.647C12.2252 8.27224 12.1796 7.88167 12.1796 7.4802C12.1796 4.65349 14.4717 2.36145 17.2984 2.36145C18.7717 2.36145 20.1013 2.98323 21.035 3.97776C22.2013 3.74856 23.2963 3.32234 24.2854 2.73567C23.9032 3.93123 23.0923 4.93416 22.035 5.5678C23.0706 5.44402 24.0577 5.16882 24.9755 4.76189C24.2894 5.78816 23.4211 6.68962 22.4211 7.41145Z" fill="#6984A5"/>
</svg>
