<svg width="18" height="18" viewBox="0 0 18 18" fill="none" xmlns="http://www.w3.org/2000/svg">
<path d="M2.25 0C1.65326 0 1.08097 0.237053 0.65901 0.65901C0.237053 1.08097 0 1.65326 0 2.25L0 15.75C0 16.3467 0.237053 16.919 0.65901 17.341C1.08097 17.7629 1.65326 18 2.25 18H15.75C16.3467 18 16.919 17.7629 17.341 17.341C17.7629 16.919 18 16.3467 18 15.75V2.25C18 1.65326 17.7629 1.08097 17.341 0.65901C16.919 0.237053 16.3467 0 15.75 0L2.25 0ZM9 4.5C9.60188 4.5 10.0732 5.01975 10.0125 5.61937L9.61875 9.56475C9.60552 9.71974 9.5346 9.86413 9.42002 9.96934C9.30545 10.0746 9.15556 10.1329 9 10.1329C8.84444 10.1329 8.69455 10.0746 8.57998 9.96934C8.4654 9.86413 8.39448 9.71974 8.38125 9.56475L7.9875 5.61937C7.97336 5.47789 7.98901 5.33501 8.03345 5.19994C8.07789 5.06487 8.15013 4.9406 8.24551 4.83515C8.3409 4.7297 8.45731 4.64539 8.58726 4.58767C8.71721 4.52994 8.85781 4.50008 9 4.5ZM9.00225 11.25C9.30062 11.25 9.58677 11.3685 9.79774 11.5795C10.0087 11.7905 10.1272 12.0766 10.1272 12.375C10.1272 12.6734 10.0087 12.9595 9.79774 13.1705C9.58677 13.3815 9.30062 13.5 9.00225 13.5C8.70388 13.5 8.41773 13.3815 8.20675 13.1705C7.99578 12.9595 7.87725 12.6734 7.87725 12.375C7.87725 12.0766 7.99578 11.7905 8.20675 11.5795C8.41773 11.3685 8.70388 11.25 9.00225 11.25Z" fill="#6984A5"/>
</svg>
