<svg width="25" height="25" viewBox="0 0 25 25" fill="none" xmlns="http://www.w3.org/2000/svg">
<g clip-path="url(#clip0_53_1316)">
<path fill-rule="evenodd" clip-rule="evenodd" d="M9.98555 15.7326V8.71787C12.4758 9.88966 14.4045 11.0216 16.6856 12.242C14.8042 13.2854 12.4758 14.4561 9.98555 15.7326ZM23.8638 5.2291C23.4342 4.66315 22.7021 4.22261 21.9226 4.07676C19.6316 3.6417 5.33873 3.64046 3.04894 4.07676C2.42389 4.19394 1.8673 4.47717 1.38917 4.91722C-0.625453 6.78709 0.00583272 16.8146 0.491434 18.4389C0.695634 19.142 0.959613 19.6491 1.29206 19.9819C1.72039 20.4219 2.30683 20.7249 2.98045 20.8608C4.86682 21.251 14.585 21.4692 21.8827 20.9194C22.5551 20.8022 23.1503 20.4895 23.6197 20.0307C25.4824 18.1683 25.3554 7.57767 23.8638 5.2291Z" fill="#6984A5"/>
</g>
<defs>
<clipPath id="clip0_53_1316">
<rect width="25" height="25" fill="white"/>
</clipPath>
</defs>
</svg>
